ISO-10303-21;
HEADER;
FILE_DESCRIPTION((''),'2;1');
FILE_NAME('ALIGNMENT_FIXTURE','2025-11-07T20:21:27',('AN515'),(''),
'CREO PARAMETRIC BY PTC INC, 2022073','CREO PARAMETRIC BY PTC INC, 2022073','');
FILE_SCHEMA(('CONFIG_CONTROL_DESIGN'));
ENDSEC;
DATA;
#1=CARTESIAN_POINT('',(5.1E1,5.4E1,-9.0175E0));
#2=DIRECTION('',(0.E0,0.E0,-1.E0));
#3=DIRECTION('',(0.E0,1.E0,0.E0));
#4=AXIS2_PLACEMENT_3D('',#1,#2,#3);
#6=DIRECTION('',(0.E0,-7.071067811866E-1,7.071067811865E-1));
#7=VECTOR('',#6,1.389464825032E0);
#8=CARTESIAN_POINT('',(5.1E1,5.14825E1,-9.825E-1));
#9=LINE('',#8,#7);
#10=CARTESIAN_POINT('',(5.1E1,5.4E1,-9.825E-1));
#11=DIRECTION('',(0.E0,0.E0,1.E0));
#12=DIRECTION('',(0.E0,-1.E0,0.E0));
#13=AXIS2_PLACEMENT_3D('',#10,#11,#12);
#15=DIRECTION('',(0.E0,-7.071067811866E-1,-7.071067811865E-1));
#16=VECTOR('',#15,1.389464825032E0);
#17=CARTESIAN_POINT('',(5.1E1,5.75E1,0.E0));
#18=LINE('',#17,#16);
#19=CARTESIAN_POINT('',(5.1E1,5.4E1,-9.825E-1));
#20=DIRECTION('',(0.E0,0.E0,1.E0));
#21=DIRECTION('',(0.E0,1.E0,0.E0));
#22=AXIS2_PLACEMENT_3D('',#19,#20,#21);
#24=DIRECTION('',(0.E0,1.E0,0.E0));
#25=VECTOR('',#24,6.2E1);
#26=CARTESIAN_POINT('',(1.2E1,-2.E0,0.E0));
#27=LINE('',#26,#25);
#28=DIRECTION('',(1.E0,0.E0,0.E0));
#29=VECTOR('',#28,4.8E1);
#30=CARTESIAN_POINT('',(1.2E1,6.E1,0.E0));
#31=LINE('',#30,#29);
#32=CARTESIAN_POINT('',(3.E1,4.322330470336E0,0.E0));
#33=DIRECTION('',(0.E0,0.E0,1.E0));
#34=DIRECTION('',(1.E0,0.E0,0.E0));
#35=AXIS2_PLACEMENT_3D('',#32,#33,#34);
#37=CARTESIAN_POINT('',(3.E1,4.322330470336E0,0.E0));
#38=DIRECTION('',(0.E0,0.E0,1.E0));
#39=DIRECTION('',(-1.E0,0.E0,0.E0));
#40=AXIS2_PLACEMENT_3D('',#37,#38,#39);
#42=CARTESIAN_POINT('',(4.2E1,5.2E1,0.E0));
#43=DIRECTION('',(0.E0,0.E0,1.E0));
#44=DIRECTION('',(1.E0,0.E0,0.E0));
#45=AXIS2_PLACEMENT_3D('',#42,#43,#44);
#47=CARTESIAN_POINT('',(4.2E1,5.2E1,0.E0));
#48=DIRECTION('',(0.E0,0.E0,1.E0));
#49=DIRECTION('',(-1.E0,0.E0,0.E0));
#50=AXIS2_PLACEMENT_3D('',#47,#48,#49);
#52=CARTESIAN_POINT('',(3.E1,2.2E1,0.E0));
#53=DIRECTION('',(0.E0,0.E0,1.E0));
#54=DIRECTION('',(1.E0,0.E0,0.E0));
#55=AXIS2_PLACEMENT_3D('',#52,#53,#54);
#57=CARTESIAN_POINT('',(3.E1,2.2E1,0.E0));
#58=DIRECTION('',(0.E0,0.E0,1.E0));
#59=DIRECTION('',(-1.E0,0.E0,0.E0));
#60=AXIS2_PLACEMENT_3D('',#57,#58,#59);
#62=CARTESIAN_POINT('',(3.E1,5.2E1,0.E0));
#63=DIRECTION('',(0.E0,0.E0,1.E0));
#64=DIRECTION('',(1.E0,0.E0,0.E0));
#65=AXIS2_PLACEMENT_3D('',#62,#63,#64);
#67=CARTESIAN_POINT('',(3.E1,5.2E1,0.E0));
#68=DIRECTION('',(0.E0,0.E0,1.E0));
#69=DIRECTION('',(-1.E0,0.E0,0.E0));
#70=AXIS2_PLACEMENT_3D('',#67,#68,#69);
#72=CARTESIAN_POINT('',(2.2E1,3.6E1,0.E0));
#73=DIRECTION('',(0.E0,0.E0,1.E0));
#74=DIRECTION('',(1.E0,0.E0,0.E0));
#75=AXIS2_PLACEMENT_3D('',#72,#73,#74);
#77=CARTESIAN_POINT('',(2.2E1,3.6E1,0.E0));
#78=DIRECTION('',(0.E0,0.E0,1.E0));
#79=DIRECTION('',(-1.E0,0.E0,0.E0));
#80=AXIS2_PLACEMENT_3D('',#77,#78,#79);
#82=CARTESIAN_POINT('',(2.1E1,4.E0,0.E0));
#83=DIRECTION('',(0.E0,0.E0,-1.E0));
#84=DIRECTION('',(0.E0,-1.E0,0.E0));
#85=AXIS2_PLACEMENT_3D('',#82,#83,#84);
#87=CARTESIAN_POINT('',(2.1E1,4.E0,0.E0));
#88=DIRECTION('',(0.E0,0.E0,-1.E0));
#89=DIRECTION('',(0.E0,1.E0,0.E0));
#90=AXIS2_PLACEMENT_3D('',#87,#88,#89);
#92=CARTESIAN_POINT('',(5.1E1,5.4E1,0.E0));
#93=DIRECTION('',(0.E0,0.E0,-1.E0));
#94=DIRECTION('',(0.E0,-1.E0,0.E0));
#95=AXIS2_PLACEMENT_3D('',#92,#93,#94);
#97=CARTESIAN_POINT('',(5.1E1,5.4E1,0.E0));
#98=DIRECTION('',(0.E0,0.E0,-1.E0));
#99=DIRECTION('',(0.E0,1.E0,0.E0));
#100=AXIS2_PLACEMENT_3D('',#97,#98,#99);
#102=DIRECTION('',(0.E0,0.E0,1.E0));
#103=VECTOR('',#102,1.E1);
#104=CARTESIAN_POINT('',(1.2E1,6.E1,-1.E1));
#105=LINE('',#104,#103);
#106=DIRECTION('',(0.E0,-1.E0,0.E0));
#107=VECTOR('',#106,6.2E1);
#108=CARTESIAN_POINT('',(1.2E1,6.E1,-1.E1));
#109=LINE('',#108,#107);
#110=CARTESIAN_POINT('',(5.1E1,5.4E1,-1.E1));
#111=DIRECTION('',(0.E0,0.E0,1.E0));
#112=DIRECTION('',(0.E0,-1.E0,0.E0));
#113=AXIS2_PLACEMENT_3D('',#110,#111,#112);
#115=CARTESIAN_POINT('',(5.1E1,5.4E1,-1.E1));
#116=DIRECTION('',(0.E0,0.E0,1.E0));
#117=DIRECTION('',(0.E0,1.E0,0.E0));
#118=AXIS2_PLACEMENT_3D('',#115,#116,#117);
#120=CARTESIAN_POINT('',(2.1E1,4.E0,-1.E1));
#121=DIRECTION('',(0.E0,0.E0,1.E0));
#122=DIRECTION('',(0.E0,-1.E0,0.E0));
#123=AXIS2_PLACEMENT_3D('',#120,#121,#122);
#125=CARTESIAN_POINT('',(2.1E1,4.E0,-1.E1));
#126=DIRECTION('',(0.E0,0.E0,1.E0));
#127=DIRECTION('',(0.E0,1.E0,0.E0));
#128=AXIS2_PLACEMENT_3D('',#125,#126,#127);
#130=DIRECTION('',(1.E0,0.E0,0.E0));
#131=VECTOR('',#130,4.8E1);
#132=CARTESIAN_POINT('',(1.2E1,6.E1,-1.E1));
#133=LINE('',#132,#131);
#134=DIRECTION('',(0.E0,0.E0,1.E0));
#135=VECTOR('',#134,1.E1);
#136=CARTESIAN_POINT('',(6.E1,6.E1,-1.E1));
#137=LINE('',#136,#135);
#138=DIRECTION('',(0.E0,1.E0,0.E0));
#139=VECTOR('',#138,6.2E1);
#140=CARTESIAN_POINT('',(6.E1,-2.E0,0.E0));
#141=LINE('',#140,#139);
#142=DIRECTION('',(0.E0,-1.E0,0.E0));
#143=VECTOR('',#142,6.2E1);
#144=CARTESIAN_POINT('',(6.E1,6.E1,-1.E1));
#145=LINE('',#144,#143);
#146=DIRECTION('',(0.E0,0.E0,1.E0));
#147=VECTOR('',#146,1.E1);
#148=CARTESIAN_POINT('',(6.E1,-2.E0,-1.E1));
#149=LINE('',#148,#147);
#150=DIRECTION('',(-1.E0,0.E0,0.E0));
#151=VECTOR('',#150,4.8E1);
#152=CARTESIAN_POINT('',(6.E1,-2.E0,-1.E1));
#153=LINE('',#152,#151);
#154=DIRECTION('',(0.E0,0.E0,1.E0));
#155=VECTOR('',#154,1.E1);
#156=CARTESIAN_POINT('',(1.2E1,-2.E0,-1.E1));
#157=LINE('',#156,#155);
#158=DIRECTION('',(1.E0,0.E0,0.E0));
#159=VECTOR('',#158,4.8E1);
#160=CARTESIAN_POINT('',(1.2E1,-2.E0,0.E0));
#161=LINE('',#160,#159);
#162=CARTESIAN_POINT('',(5.1E1,5.4E1,-9.0175E0));
#163=DIRECTION('',(0.E0,0.E0,-1.E0));
#164=DIRECTION('',(0.E0,-1.E0,0.E0));
#165=AXIS2_PLACEMENT_3D('',#162,#163,#164);
#167=DIRECTION('',(0.E0,-7.071067811866E-1,7.071067811865E-1));
#168=VECTOR('',#167,1.389464825032E0);
#169=CARTESIAN_POINT('',(5.1E1,5.75E1,-1.E1));
#170=LINE('',#169,#168);
#171=DIRECTION('',(0.E0,-7.071067811866E-1,-7.071067811865E-1));
#172=VECTOR('',#171,1.389464825032E0);
#173=CARTESIAN_POINT('',(5.1E1,5.14825E1,-9.0175E0));
#174=LINE('',#173,#172);
#175=DIRECTION('',(0.E0,0.E0,1.E0));
#176=VECTOR('',#175,8.035E0);
#177=CARTESIAN_POINT('',(5.1E1,5.65175E1,-9.0175E0));
#178=LINE('',#177,#176);
#179=DIRECTION('',(0.E0,0.E0,-1.E0));
#180=VECTOR('',#179,8.035E0);
#181=CARTESIAN_POINT('',(5.1E1,5.14825E1,-9.825E-1));
#182=LINE('',#181,#180);
#183=CARTESIAN_POINT('',(2.1E1,4.E0,-9.0175E0));
#184=DIRECTION('',(0.E0,0.E0,-1.E0));
#185=DIRECTION('',(0.E0,1.E0,0.E0));
#186=AXIS2_PLACEMENT_3D('',#183,#184,#185);
#188=DIRECTION('',(0.E0,-7.071067811865E-1,7.071067811865E-1));
#189=VECTOR('',#188,1.389464825032E0);
#190=CARTESIAN_POINT('',(2.1E1,1.4825E0,-9.825E-1));
#191=LINE('',#190,#189);
#192=CARTESIAN_POINT('',(2.1E1,4.E0,-9.825E-1));
#193=DIRECTION('',(0.E0,0.E0,1.E0));
#194=DIRECTION('',(0.E0,-1.E0,0.E0));
#195=AXIS2_PLACEMENT_3D('',#192,#193,#194);
#197=DIRECTION('',(0.E0,-7.071067811865E-1,-7.071067811865E-1));
#198=VECTOR('',#197,1.389464825032E0);
#199=CARTESIAN_POINT('',(2.1E1,7.5E0,0.E0));
#200=LINE('',#199,#198);
#201=CARTESIAN_POINT('',(2.1E1,4.E0,-9.825E-1));
#202=DIRECTION('',(0.E0,0.E0,1.E0));
#203=DIRECTION('',(0.E0,1.E0,0.E0));
#204=AXIS2_PLACEMENT_3D('',#201,#202,#203);
#206=DIRECTION('',(0.E0,0.E0,1.E0));
#207=VECTOR('',#206,8.035E0);
#208=CARTESIAN_POINT('',(2.1E1,6.5175E0,-9.0175E0));
#209=LINE('',#208,#207);
#210=DIRECTION('',(0.E0,0.E0,-1.E0));
#211=VECTOR('',#210,8.035E0);
#212=CARTESIAN_POINT('',(2.1E1,1.4825E0,-9.825E-1));
#213=LINE('',#212,#211);
#214=CARTESIAN_POINT('',(2.1E1,4.E0,-9.0175E0));
#215=DIRECTION('',(0.E0,0.E0,-1.E0));
#216=DIRECTION('',(0.E0,-1.E0,0.E0));
#217=AXIS2_PLACEMENT_3D('',#214,#215,#216);
#219=DIRECTION('',(0.E0,-7.071067811865E-1,7.071067811865E-1));
#220=VECTOR('',#219,1.389464825032E0);
#221=CARTESIAN_POINT('',(2.1E1,7.5E0,-1.E1));
#222=LINE('',#221,#220);
#223=DIRECTION('',(0.E0,-7.071067811865E-1,-7.071067811865E-1));
#224=VECTOR('',#223,1.389464825032E0);
#225=CARTESIAN_POINT('',(2.1E1,1.4825E0,-9.0175E0));
#226=LINE('',#225,#224);
#227=DIRECTION('',(0.E0,0.E0,1.E0));
#228=VECTOR('',#227,6.E0);
#229=CARTESIAN_POINT('',(2.75E1,4.322330470336E0,0.E0));
#230=LINE('',#229,#228);
#231=DIRECTION('',(0.E0,0.E0,1.E0));
#232=VECTOR('',#231,6.E0);
#233=CARTESIAN_POINT('',(3.25E1,4.322330470336E0,0.E0));
#234=LINE('',#233,#232);
#235=CARTESIAN_POINT('',(3.E1,4.322330470336E0,6.E0));
#236=DIRECTION('',(0.E0,0.E0,1.E0));
#237=DIRECTION('',(1.E0,0.E0,0.E0));
#238=AXIS2_PLACEMENT_3D('',#235,#236,#237);
#240=CARTESIAN_POINT('',(3.E1,4.322330470336E0,6.E0));
#241=DIRECTION('',(0.E0,0.E0,1.E0));
#242=DIRECTION('',(-1.E0,0.E0,0.E0));
#243=AXIS2_PLACEMENT_3D('',#240,#241,#242);
#245=DIRECTION('',(0.E0,0.E0,1.E0));
#246=VECTOR('',#245,6.E0);
#247=CARTESIAN_POINT('',(3.95E1,5.2E1,0.E0));
#248=LINE('',#247,#246);
#249=DIRECTION('',(0.E0,0.E0,1.E0));
#250=VECTOR('',#249,6.E0);
#251=CARTESIAN_POINT('',(4.45E1,5.2E1,0.E0));
#252=LINE('',#251,#250);
#253=CARTESIAN_POINT('',(4.2E1,5.2E1,6.E0));
#254=DIRECTION('',(0.E0,0.E0,1.E0));
#255=DIRECTION('',(1.E0,0.E0,0.E0));
#256=AXIS2_PLACEMENT_3D('',#253,#254,#255);
#258=CARTESIAN_POINT('',(4.2E1,5.2E1,6.E0));
#259=DIRECTION('',(0.E0,0.E0,1.E0));
#260=DIRECTION('',(-1.E0,0.E0,0.E0));
#261=AXIS2_PLACEMENT_3D('',#258,#259,#260);
#263=DIRECTION('',(0.E0,0.E0,1.E0));
#264=VECTOR('',#263,6.E0);
#265=CARTESIAN_POINT('',(2.75E1,2.2E1,0.E0));
#266=LINE('',#265,#264);
#267=DIRECTION('',(0.E0,0.E0,1.E0));
#268=VECTOR('',#267,6.E0);
#269=CARTESIAN_POINT('',(3.25E1,2.2E1,0.E0));
#270=LINE('',#269,#268);
#271=CARTESIAN_POINT('',(3.E1,2.2E1,6.E0));
#272=DIRECTION('',(0.E0,0.E0,1.E0));
#273=DIRECTION('',(1.E0,0.E0,0.E0));
#274=AXIS2_PLACEMENT_3D('',#271,#272,#273);
#276=CARTESIAN_POINT('',(3.E1,2.2E1,6.E0));
#277=DIRECTION('',(0.E0,0.E0,1.E0));
#278=DIRECTION('',(-1.E0,0.E0,0.E0));
#279=AXIS2_PLACEMENT_3D('',#276,#277,#278);
#281=DIRECTION('',(0.E0,0.E0,1.E0));
#282=VECTOR('',#281,6.E0);
#283=CARTESIAN_POINT('',(2.75E1,5.2E1,0.E0));
#284=LINE('',#283,#282);
#285=DIRECTION('',(0.E0,0.E0,1.E0));
#286=VECTOR('',#285,6.E0);
#287=CARTESIAN_POINT('',(3.25E1,5.2E1,0.E0));
#288=LINE('',#287,#286);
#289=CARTESIAN_POINT('',(3.E1,5.2E1,6.E0));
#290=DIRECTION('',(0.E0,0.E0,1.E0));
#291=DIRECTION('',(1.E0,0.E0,0.E0));
#292=AXIS2_PLACEMENT_3D('',#289,#290,#291);
#294=CARTESIAN_POINT('',(3.E1,5.2E1,6.E0));
#295=DIRECTION('',(0.E0,0.E0,1.E0));
#296=DIRECTION('',(-1.E0,0.E0,0.E0));
#297=AXIS2_PLACEMENT_3D('',#294,#295,#296);
#299=DIRECTION('',(0.E0,0.E0,1.E0));
#300=VECTOR('',#299,6.E0);
#301=CARTESIAN_POINT('',(1.95E1,3.6E1,0.E0));
#302=LINE('',#301,#300);
#303=DIRECTION('',(0.E0,0.E0,1.E0));
#304=VECTOR('',#303,6.E0);
#305=CARTESIAN_POINT('',(2.45E1,3.6E1,0.E0));
#306=LINE('',#305,#304);
#307=CARTESIAN_POINT('',(2.2E1,3.6E1,6.E0));
#308=DIRECTION('',(0.E0,0.E0,1.E0));
#309=DIRECTION('',(1.E0,0.E0,0.E0));
#310=AXIS2_PLACEMENT_3D('',#307,#308,#309);
#312=CARTESIAN_POINT('',(2.2E1,3.6E1,6.E0));
#313=DIRECTION('',(0.E0,0.E0,1.E0));
#314=DIRECTION('',(-1.E0,0.E0,0.E0));
#315=AXIS2_PLACEMENT_3D('',#312,#313,#314);
#317=CARTESIAN_POINT('',(3.25E1,4.322330470336E0,6.E0));
#318=CARTESIAN_POINT('',(2.75E1,4.322330470336E0,6.E0));
#319=VERTEX_POINT('',#317);
#320=VERTEX_POINT('',#318);
#321=CARTESIAN_POINT('',(4.45E1,5.2E1,6.E0));
#322=CARTESIAN_POINT('',(3.95E1,5.2E1,6.E0));
#323=VERTEX_POINT('',#321);
#324=VERTEX_POINT('',#322);
#325=CARTESIAN_POINT('',(3.25E1,2.2E1,6.E0));
#326=CARTESIAN_POINT('',(2.75E1,2.2E1,6.E0));
#327=VERTEX_POINT('',#325);
#328=VERTEX_POINT('',#326);
#329=CARTESIAN_POINT('',(3.25E1,5.2E1,6.E0));
#330=CARTESIAN_POINT('',(2.75E1,5.2E1,6.E0));
#331=VERTEX_POINT('',#329);
#332=VERTEX_POINT('',#330);
#333=CARTESIAN_POINT('',(2.45E1,3.6E1,6.E0));
#334=CARTESIAN_POINT('',(1.95E1,3.6E1,6.E0));
#335=VERTEX_POINT('',#333);
#336=VERTEX_POINT('',#334);
#337=CARTESIAN_POINT('',(2.1E1,1.4825E0,-9.0175E0));
#338=CARTESIAN_POINT('',(2.1E1,5.E-1,-1.E1));
#339=VERTEX_POINT('',#337);
#340=VERTEX_POINT('',#338);
#341=CARTESIAN_POINT('',(2.1E1,7.5E0,-1.E1));
#342=VERTEX_POINT('',#341);
#343=CARTESIAN_POINT('',(2.1E1,6.5175E0,-9.0175E0));
#344=VERTEX_POINT('',#343);
#345=CARTESIAN_POINT('',(2.1E1,1.4825E0,-9.825E-1));
#346=VERTEX_POINT('',#345);
#347=CARTESIAN_POINT('',(2.1E1,6.5175E0,-9.825E-1));
#348=VERTEX_POINT('',#347);
#349=CARTESIAN_POINT('',(5.1E1,5.14825E1,-9.0175E0));
#350=CARTESIAN_POINT('',(5.1E1,5.05E1,-1.E1));
#351=VERTEX_POINT('',#349);
#352=VERTEX_POINT('',#350);
#353=CARTESIAN_POINT('',(5.1E1,5.75E1,-1.E1));
#354=VERTEX_POINT('',#353);
#355=CARTESIAN_POINT('',(5.1E1,5.65175E1,-9.0175E0));
#356=VERTEX_POINT('',#355);
#357=CARTESIAN_POINT('',(5.1E1,5.14825E1,-9.825E-1));
#358=VERTEX_POINT('',#357);
#359=CARTESIAN_POINT('',(5.1E1,5.65175E1,-9.825E-1));
#360=VERTEX_POINT('',#359);
#361=CARTESIAN_POINT('',(2.1E1,5.E-1,0.E0));
#362=VERTEX_POINT('',#361);
#363=CARTESIAN_POINT('',(2.1E1,7.5E0,0.E0));
#364=VERTEX_POINT('',#363);
#365=CARTESIAN_POINT('',(5.1E1,5.05E1,0.E0));
#366=VERTEX_POINT('',#365);
#367=CARTESIAN_POINT('',(5.1E1,5.75E1,0.E0));
#368=VERTEX_POINT('',#367);
#369=CARTESIAN_POINT('',(3.25E1,4.322330470336E0,0.E0));
#370=VERTEX_POINT('',#369);
#371=CARTESIAN_POINT('',(2.75E1,4.322330470336E0,0.E0));
#372=VERTEX_POINT('',#371);
#373=CARTESIAN_POINT('',(4.45E1,5.2E1,0.E0));
#374=VERTEX_POINT('',#373);
#375=CARTESIAN_POINT('',(3.95E1,5.2E1,0.E0));
#376=VERTEX_POINT('',#375);
#377=CARTESIAN_POINT('',(3.25E1,2.2E1,0.E0));
#378=VERTEX_POINT('',#377);
#379=CARTESIAN_POINT('',(2.75E1,2.2E1,0.E0));
#380=VERTEX_POINT('',#379);
#381=CARTESIAN_POINT('',(3.25E1,5.2E1,0.E0));
#382=VERTEX_POINT('',#381);
#383=CARTESIAN_POINT('',(2.75E1,5.2E1,0.E0));
#384=VERTEX_POINT('',#383);
#385=CARTESIAN_POINT('',(2.45E1,3.6E1,0.E0));
#386=VERTEX_POINT('',#385);
#387=CARTESIAN_POINT('',(1.95E1,3.6E1,0.E0));
#388=VERTEX_POINT('',#387);
#389=CARTESIAN_POINT('',(1.2E1,6.E1,-1.E1));
#390=CARTESIAN_POINT('',(1.2E1,6.E1,0.E0));
#391=VERTEX_POINT('',#389);
#392=VERTEX_POINT('',#390);
#393=CARTESIAN_POINT('',(1.2E1,-2.E0,-1.E1));
#394=CARTESIAN_POINT('',(1.2E1,-2.E0,0.E0));
#395=VERTEX_POINT('',#393);
#396=VERTEX_POINT('',#394);
#397=CARTESIAN_POINT('',(6.E1,6.E1,-1.E1));
#398=CARTESIAN_POINT('',(6.E1,6.E1,0.E0));
#399=VERTEX_POINT('',#397);
#400=VERTEX_POINT('',#398);
#401=CARTESIAN_POINT('',(6.E1,-2.E0,-1.E1));
#402=CARTESIAN_POINT('',(6.E1,-2.E0,0.E0));
#403=VERTEX_POINT('',#401);
#404=VERTEX_POINT('',#402);
#405=CARTESIAN_POINT('',(5.1E1,5.4E1,-9.50875E0));
#406=DIRECTION('',(0.E0,0.E0,-1.E0));
#407=DIRECTION('',(0.E0,-1.E0,0.E0));
#408=AXIS2_PLACEMENT_3D('',#405,#406,#407);
#409=CONICAL_SURFACE('',#408,3.00875E0,4.5E1);
#411=ORIENTED_EDGE('',*,*,#410,.T.);
#413=ORIENTED_EDGE('',*,*,#412,.T.);
#415=ORIENTED_EDGE('',*,*,#414,.T.);
#417=ORIENTED_EDGE('',*,*,#416,.T.);
#418=EDGE_LOOP('',(#411,#413,#415,#417));
#419=FACE_OUTER_BOUND('',#418,.F.);
#420=ADVANCED_FACE('',(#419),#409,.F.);
#421=CARTESIAN_POINT('',(5.1E1,5.4E1,0.E0));
#422=DIRECTION('',(0.E0,0.E0,-1.E0));
#423=DIRECTION('',(0.E0,-1.E0,0.E0));
#424=AXIS2_PLACEMENT_3D('',#421,#422,#423);
#425=CYLINDRICAL_SURFACE('',#424,2.5175E0);
#427=ORIENTED_EDGE('',*,*,#426,.F.);
#429=ORIENTED_EDGE('',*,*,#428,.T.);
#430=ORIENTED_EDGE('',*,*,#410,.F.);
#432=ORIENTED_EDGE('',*,*,#431,.T.);
#433=EDGE_LOOP('',(#427,#429,#430,#432));
#434=FACE_OUTER_BOUND('',#433,.F.);
#435=ADVANCED_FACE('',(#434),#425,.F.);
#436=CARTESIAN_POINT('',(5.1E1,5.4E1,-4.9125E-1));
#437=DIRECTION('',(0.E0,0.E0,1.E0));
#438=DIRECTION('',(0.E0,-1.E0,0.E0));
#439=AXIS2_PLACEMENT_3D('',#436,#437,#438);
#440=CONICAL_SURFACE('',#439,3.00875E0,4.5E1);
#442=ORIENTED_EDGE('',*,*,#441,.F.);
#443=ORIENTED_EDGE('',*,*,#426,.T.);
#445=ORIENTED_EDGE('',*,*,#444,.F.);
#447=ORIENTED_EDGE('',*,*,#446,.T.);
#448=EDGE_LOOP('',(#442,#443,#445,#447));
#449=FACE_OUTER_BOUND('',#448,.F.);
#450=ADVANCED_FACE('',(#449),#440,.F.);
#451=CARTESIAN_POINT('',(5.1E1,5.4E1,-4.9125E-1));
#452=DIRECTION('',(0.E0,0.E0,1.E0));
#453=DIRECTION('',(0.E0,-1.E0,0.E0));
#454=AXIS2_PLACEMENT_3D('',#451,#452,#453);
#455=CONICAL_SURFACE('',#454,3.00875E0,4.5E1);
#456=ORIENTED_EDGE('',*,*,#441,.T.);
#458=ORIENTED_EDGE('',*,*,#457,.T.);
#459=ORIENTED_EDGE('',*,*,#444,.T.);
#461=ORIENTED_EDGE('',*,*,#460,.T.);
#462=EDGE_LOOP('',(#456,#458,#459,#461));
#463=FACE_OUTER_BOUND('',#462,.F.);
#464=ADVANCED_FACE('',(#463),#455,.F.);
#465=CARTESIAN_POINT('',(3.6E1,2.9E1,0.E0));
#466=DIRECTION('',(0.E0,0.E0,1.E0));
#467=DIRECTION('',(0.E0,-1.E0,0.E0));
#468=AXIS2_PLACEMENT_3D('',#465,#466,#467);
#469=PLANE('',#468);
#471=ORIENTED_EDGE('',*,*,#470,.T.);
#473=ORIENTED_EDGE('',*,*,#472,.T.);
#475=ORIENTED_EDGE('',*,*,#474,.F.);
#477=ORIENTED_EDGE('',*,*,#476,.F.);
#478=EDGE_LOOP('',(#471,#473,#475,#477));
#479=FACE_OUTER_BOUND('',#478,.F.);
#481=ORIENTED_EDGE('',*,*,#480,.T.);
#483=ORIENTED_EDGE('',*,*,#482,.T.);
#484=EDGE_LOOP('',(#481,#483));
#485=FACE_BOUND('',#484,.F.);
#487=ORIENTED_EDGE('',*,*,#486,.T.);
#489=ORIENTED_EDGE('',*,*,#488,.T.);
#490=EDGE_LOOP('',(#487,#489));
#491=FACE_BOUND('',#490,.F.);
#493=ORIENTED_EDGE('',*,*,#492,.T.);
#495=ORIENTED_EDGE('',*,*,#494,.T.);
#496=EDGE_LOOP('',(#493,#495));
#497=FACE_BOUND('',#496,.F.);
#499=ORIENTED_EDGE('',*,*,#498,.T.);
#501=ORIENTED_EDGE('',*,*,#500,.T.);
#502=EDGE_LOOP('',(#499,#501));
#503=FACE_BOUND('',#502,.F.);
#505=ORIENTED_EDGE('',*,*,#504,.T.);
#507=ORIENTED_EDGE('',*,*,#506,.T.);
#508=EDGE_LOOP('',(#505,#507));
#509=FACE_BOUND('',#508,.F.);
#511=ORIENTED_EDGE('',*,*,#510,.F.);
#513=ORIENTED_EDGE('',*,*,#512,.F.);
#514=EDGE_LOOP('',(#511,#513));
#515=FACE_BOUND('',#514,.F.);
#516=ORIENTED_EDGE('',*,*,#457,.F.);
#517=ORIENTED_EDGE('',*,*,#446,.F.);
#518=EDGE_LOOP('',(#516,#517));
#519=FACE_BOUND('',#518,.F.);
#520=ADVANCED_FACE('',(#479,#485,#491,#497,#503,#509,#515,#519),#469,.T.);
#521=CARTESIAN_POINT('',(1.2E1,-2.E0,0.E0));
#522=DIRECTION('',(-1.E0,0.E0,0.E0));
#523=DIRECTION('',(0.E0,1.E0,0.E0));
#524=AXIS2_PLACEMENT_3D('',#521,#522,#523);
#525=PLANE('',#524);
#527=ORIENTED_EDGE('',*,*,#526,.F.);
#529=ORIENTED_EDGE('',*,*,#528,.T.);
#530=ORIENTED_EDGE('',*,*,#470,.F.);
#532=ORIENTED_EDGE('',*,*,#531,.F.);
#533=EDGE_LOOP('',(#527,#529,#530,#532));
#534=FACE_OUTER_BOUND('',#533,.F.);
#535=ADVANCED_FACE('',(#534),#525,.T.);
#536=CARTESIAN_POINT('',(3.6E1,2.9E1,-1.E1));
#537=DIRECTION('',(0.E0,0.E0,1.E0));
#538=DIRECTION('',(0.E0,-1.E0,0.E0));
#539=AXIS2_PLACEMENT_3D('',#536,#537,#538);
#540=PLANE('',#539);
#542=ORIENTED_EDGE('',*,*,#541,.F.);
#543=ORIENTED_EDGE('',*,*,#526,.T.);
#545=ORIENTED_EDGE('',*,*,#544,.F.);
#547=ORIENTED_EDGE('',*,*,#546,.F.);
#548=EDGE_LOOP('',(#542,#543,#545,#547));
#549=FACE_OUTER_BOUND('',#548,.F.);
#550=ORIENTED_EDGE('',*,*,#414,.F.);
#552=ORIENTED_EDGE('',*,*,#551,.F.);
#553=EDGE_LOOP('',(#550,#552));
#554=FACE_BOUND('',#553,.F.);
#556=ORIENTED_EDGE('',*,*,#555,.F.);
#558=ORIENTED_EDGE('',*,*,#557,.F.);
#559=EDGE_LOOP('',(#556,#558));
#560=FACE_BOUND('',#559,.F.);
#561=ADVANCED_FACE('',(#549,#554,#560),#540,.F.);
#562=CARTESIAN_POINT('',(1.2E1,6.E1,0.E0));
#563=DIRECTION('',(0.E0,1.E0,0.E0));
#564=DIRECTION('',(1.E0,0.E0,0.E0));
#565=AXIS2_PLACEMENT_3D('',#562,#563,#564);
#566=PLANE('',#565);
#567=ORIENTED_EDGE('',*,*,#472,.F.);
#568=ORIENTED_EDGE('',*,*,#528,.F.);
#569=ORIENTED_EDGE('',*,*,#541,.T.);
#571=ORIENTED_EDGE('',*,*,#570,.T.);
#572=EDGE_LOOP('',(#567,#568,#569,#571));
#573=FACE_OUTER_BOUND('',#572,.F.);
#574=ADVANCED_FACE('',(#573),#566,.T.);
#575=CARTESIAN_POINT('',(6.E1,6.E1,0.E0));
#576=DIRECTION('',(1.E0,0.E0,0.E0));
#577=DIRECTION('',(0.E0,-1.E0,0.E0));
#578=AXIS2_PLACEMENT_3D('',#575,#576,#577);
#579=PLANE('',#578);
#580=ORIENTED_EDGE('',*,*,#474,.T.);
#581=ORIENTED_EDGE('',*,*,#570,.F.);
#582=ORIENTED_EDGE('',*,*,#546,.T.);
#584=ORIENTED_EDGE('',*,*,#583,.T.);
#585=EDGE_LOOP('',(#580,#581,#582,#584));
#586=FACE_OUTER_BOUND('',#585,.F.);
#587=ADVANCED_FACE('',(#586),#579,.T.);
#588=CARTESIAN_POINT('',(6.E1,-2.E0,0.E0));
#589=DIRECTION('',(0.E0,-1.E0,0.E0));
#590=DIRECTION('',(-1.E0,0.E0,0.E0));
#591=AXIS2_PLACEMENT_3D('',#588,#589,#590);
#592=PLANE('',#591);
#593=ORIENTED_EDGE('',*,*,#544,.T.);
#594=ORIENTED_EDGE('',*,*,#531,.T.);
#595=ORIENTED_EDGE('',*,*,#476,.T.);
#596=ORIENTED_EDGE('',*,*,#583,.F.);
#597=EDGE_LOOP('',(#593,#594,#595,#596));
#598=FACE_OUTER_BOUND('',#597,.F.);
#599=ADVANCED_FACE('',(#598),#592,.T.);
#600=CARTESIAN_POINT('',(5.1E1,5.4E1,-9.50875E0));
#601=DIRECTION('',(0.E0,0.E0,-1.E0));
#602=DIRECTION('',(0.E0,-1.E0,0.E0));
#603=AXIS2_PLACEMENT_3D('',#600,#601,#602);
#604=CONICAL_SURFACE('',#603,3.00875E0,4.5E1);
#606=ORIENTED_EDGE('',*,*,#605,.T.);
#607=ORIENTED_EDGE('',*,*,#416,.F.);
#608=ORIENTED_EDGE('',*,*,#551,.T.);
#609=ORIENTED_EDGE('',*,*,#412,.F.);
#610=EDGE_LOOP('',(#606,#607,#608,#609));
#611=FACE_OUTER_BOUND('',#610,.F.);
#612=ADVANCED_FACE('',(#611),#604,.F.);
#613=CARTESIAN_POINT('',(5.1E1,5.4E1,0.E0));
#614=DIRECTION('',(0.E0,0.E0,-1.E0));
#615=DIRECTION('',(0.E0,-1.E0,0.E0));
#616=AXIS2_PLACEMENT_3D('',#613,#614,#615);
#617=CYLINDRICAL_SURFACE('',#616,2.5175E0);
#618=ORIENTED_EDGE('',*,*,#460,.F.);
#619=ORIENTED_EDGE('',*,*,#431,.F.);
#620=ORIENTED_EDGE('',*,*,#605,.F.);
#621=ORIENTED_EDGE('',*,*,#428,.F.);
#622=EDGE_LOOP('',(#618,#619,#620,#621));
#623=FACE_OUTER_BOUND('',#622,.F.);
#624=ADVANCED_FACE('',(#623),#617,.F.);
#625=CARTESIAN_POINT('',(2.1E1,4.E0,-9.50875E0));
#626=DIRECTION('',(0.E0,0.E0,-1.E0));
#627=DIRECTION('',(0.E0,-1.E0,0.E0));
#628=AXIS2_PLACEMENT_3D('',#625,#626,#627);
#629=CONICAL_SURFACE('',#628,3.00875E0,4.5E1);
#631=ORIENTED_EDGE('',*,*,#630,.T.);
#633=ORIENTED_EDGE('',*,*,#632,.T.);
#634=ORIENTED_EDGE('',*,*,#555,.T.);
#636=ORIENTED_EDGE('',*,*,#635,.T.);
#637=EDGE_LOOP('',(#631,#633,#634,#636));
#638=FACE_OUTER_BOUND('',#637,.F.);
#639=ADVANCED_FACE('',(#638),#629,.F.);
#640=CARTESIAN_POINT('',(2.1E1,4.E0,0.E0));
#641=DIRECTION('',(0.E0,0.E0,-1.E0));
#642=DIRECTION('',(0.E0,-1.E0,0.E0));
#643=AXIS2_PLACEMENT_3D('',#640,#641,#642);
#644=CYLINDRICAL_SURFACE('',#643,2.5175E0);
#646=ORIENTED_EDGE('',*,*,#645,.F.);
#648=ORIENTED_EDGE('',*,*,#647,.T.);
#649=ORIENTED_EDGE('',*,*,#630,.F.);
#651=ORIENTED_EDGE('',*,*,#650,.T.);
#652=EDGE_LOOP('',(#646,#648,#649,#651));
#653=FACE_OUTER_BOUND('',#652,.F.);
#654=ADVANCED_FACE('',(#653),#644,.F.);
#655=CARTESIAN_POINT('',(2.1E1,4.E0,-4.9125E-1));
#656=DIRECTION('',(0.E0,0.E0,1.E0));
#657=DIRECTION('',(0.E0,-1.E0,0.E0));
#658=AXIS2_PLACEMENT_3D('',#655,#656,#657);
#659=CONICAL_SURFACE('',#658,3.00875E0,4.5E1);
#661=ORIENTED_EDGE('',*,*,#660,.F.);
#662=ORIENTED_EDGE('',*,*,#645,.T.);
#664=ORIENTED_EDGE('',*,*,#663,.F.);
#665=ORIENTED_EDGE('',*,*,#512,.T.);
#666=EDGE_LOOP('',(#661,#662,#664,#665));
#667=FACE_OUTER_BOUND('',#666,.F.);
#668=ADVANCED_FACE('',(#667),#659,.F.);
#669=CARTESIAN_POINT('',(2.1E1,4.E0,-4.9125E-1));
#670=DIRECTION('',(0.E0,0.E0,1.E0));
#671=DIRECTION('',(0.E0,-1.E0,0.E0));
#672=AXIS2_PLACEMENT_3D('',#669,#670,#671);
#673=CONICAL_SURFACE('',#672,3.00875E0,4.5E1);
#674=ORIENTED_EDGE('',*,*,#660,.T.);
#675=ORIENTED_EDGE('',*,*,#510,.T.);
#676=ORIENTED_EDGE('',*,*,#663,.T.);
#678=ORIENTED_EDGE('',*,*,#677,.T.);
#679=EDGE_LOOP('',(#674,#675,#676,#678));
#680=FACE_OUTER_BOUND('',#679,.F.);
#681=ADVANCED_FACE('',(#680),#673,.F.);
#682=CARTESIAN_POINT('',(2.1E1,4.E0,0.E0));
#683=DIRECTION('',(0.E0,0.E0,-1.E0));
#684=DIRECTION('',(0.E0,-1.E0,0.E0));
#685=AXIS2_PLACEMENT_3D('',#682,#683,#684);
#686=CYLINDRICAL_SURFACE('',#685,2.5175E0);
#687=ORIENTED_EDGE('',*,*,#677,.F.);
#688=ORIENTED_EDGE('',*,*,#650,.F.);
#690=ORIENTED_EDGE('',*,*,#689,.F.);
#691=ORIENTED_EDGE('',*,*,#647,.F.);
#692=EDGE_LOOP('',(#687,#688,#690,#691));
#693=FACE_OUTER_BOUND('',#692,.F.);
#694=ADVANCED_FACE('',(#693),#686,.F.);
#695=CARTESIAN_POINT('',(2.1E1,4.E0,-9.50875E0));
#696=DIRECTION('',(0.E0,0.E0,-1.E0));
#697=DIRECTION('',(0.E0,-1.E0,0.E0));
#698=AXIS2_PLACEMENT_3D('',#695,#696,#697);
#699=CONICAL_SURFACE('',#698,3.00875E0,4.5E1);
#700=ORIENTED_EDGE('',*,*,#689,.T.);
#701=ORIENTED_EDGE('',*,*,#635,.F.);
#702=ORIENTED_EDGE('',*,*,#557,.T.);
#703=ORIENTED_EDGE('',*,*,#632,.F.);
#704=EDGE_LOOP('',(#700,#701,#702,#703));
#705=FACE_OUTER_BOUND('',#704,.F.);
#706=ADVANCED_FACE('',(#705),#699,.F.);
#707=CARTESIAN_POINT('',(3.E1,4.322330470336E0,0.E0));
#708=DIRECTION('',(0.E0,0.E0,1.E0));
#709=DIRECTION('',(-1.E0,0.E0,0.E0));
#710=AXIS2_PLACEMENT_3D('',#707,#708,#709);
#711=CYLINDRICAL_SURFACE('',#710,2.5E0);
#712=ORIENTED_EDGE('',*,*,#480,.F.);
#714=ORIENTED_EDGE('',*,*,#713,.T.);
#716=ORIENTED_EDGE('',*,*,#715,.T.);
#718=ORIENTED_EDGE('',*,*,#717,.F.);
#719=EDGE_LOOP('',(#712,#714,#716,#718));
#720=FACE_OUTER_BOUND('',#719,.F.);
#721=ADVANCED_FACE('',(#720),#711,.T.);
#722=CARTESIAN_POINT('',(3.E1,4.322330470336E0,0.E0));
#723=DIRECTION('',(0.E0,0.E0,1.E0));
#724=DIRECTION('',(-1.E0,0.E0,0.E0));
#725=AXIS2_PLACEMENT_3D('',#722,#723,#724);
#726=CYLINDRICAL_SURFACE('',#725,2.5E0);
#727=ORIENTED_EDGE('',*,*,#482,.F.);
#728=ORIENTED_EDGE('',*,*,#717,.T.);
#730=ORIENTED_EDGE('',*,*,#729,.T.);
#731=ORIENTED_EDGE('',*,*,#713,.F.);
#732=EDGE_LOOP('',(#727,#728,#730,#731));
#733=FACE_OUTER_BOUND('',#732,.F.);
#734=ADVANCED_FACE('',(#733),#726,.T.);
#735=CARTESIAN_POINT('',(3.E1,4.322330470336E0,6.E0));
#736=DIRECTION('',(0.E0,0.E0,1.E0));
#737=DIRECTION('',(-1.E0,0.E0,0.E0));
#738=AXIS2_PLACEMENT_3D('',#735,#736,#737);
#739=PLANE('',#738);
#740=ORIENTED_EDGE('',*,*,#715,.F.);
#741=ORIENTED_EDGE('',*,*,#729,.F.);
#742=EDGE_LOOP('',(#740,#741));
#743=FACE_OUTER_BOUND('',#742,.F.);
#744=ADVANCED_FACE('',(#743),#739,.T.);
#745=CARTESIAN_POINT('',(4.2E1,5.2E1,0.E0));
#746=DIRECTION('',(0.E0,0.E0,1.E0));
#747=DIRECTION('',(-1.E0,0.E0,0.E0));
#748=AXIS2_PLACEMENT_3D('',#745,#746,#747);
#749=CYLINDRICAL_SURFACE('',#748,2.5E0);
#750=ORIENTED_EDGE('',*,*,#486,.F.);
#752=ORIENTED_EDGE('',*,*,#751,.T.);
#754=ORIENTED_EDGE('',*,*,#753,.T.);
#756=ORIENTED_EDGE('',*,*,#755,.F.);
#757=EDGE_LOOP('',(#750,#752,#754,#756));
#758=FACE_OUTER_BOUND('',#757,.F.);
#759=ADVANCED_FACE('',(#758),#749,.T.);
#760=CARTESIAN_POINT('',(4.2E1,5.2E1,0.E0));
#761=DIRECTION('',(0.E0,0.E0,1.E0));
#762=DIRECTION('',(-1.E0,0.E0,0.E0));
#763=AXIS2_PLACEMENT_3D('',#760,#761,#762);
#764=CYLINDRICAL_SURFACE('',#763,2.5E0);
#765=ORIENTED_EDGE('',*,*,#488,.F.);
#766=ORIENTED_EDGE('',*,*,#755,.T.);
#768=ORIENTED_EDGE('',*,*,#767,.T.);
#769=ORIENTED_EDGE('',*,*,#751,.F.);
#770=EDGE_LOOP('',(#765,#766,#768,#769));
#771=FACE_OUTER_BOUND('',#770,.F.);
#772=ADVANCED_FACE('',(#771),#764,.T.);
#773=CARTESIAN_POINT('',(4.2E1,5.2E1,6.E0));
#774=DIRECTION('',(0.E0,0.E0,1.E0));
#775=DIRECTION('',(-1.E0,0.E0,0.E0));
#776=AXIS2_PLACEMENT_3D('',#773,#774,#775);
#777=PLANE('',#776);
#778=ORIENTED_EDGE('',*,*,#753,.F.);
#779=ORIENTED_EDGE('',*,*,#767,.F.);
#780=EDGE_LOOP('',(#778,#779));
#781=FACE_OUTER_BOUND('',#780,.F.);
#782=ADVANCED_FACE('',(#781),#777,.T.);
#783=CARTESIAN_POINT('',(3.E1,2.2E1,0.E0));
#784=DIRECTION('',(0.E0,0.E0,1.E0));
#785=DIRECTION('',(-1.E0,0.E0,0.E0));
#786=AXIS2_PLACEMENT_3D('',#783,#784,#785);
#787=CYLINDRICAL_SURFACE('',#786,2.5E0);
#788=ORIENTED_EDGE('',*,*,#492,.F.);
#790=ORIENTED_EDGE('',*,*,#789,.T.);
#792=ORIENTED_EDGE('',*,*,#791,.T.);
#794=ORIENTED_EDGE('',*,*,#793,.F.);
#795=EDGE_LOOP('',(#788,#790,#792,#794));
#796=FACE_OUTER_BOUND('',#795,.F.);
#797=ADVANCED_FACE('',(#796),#787,.T.);
#798=CARTESIAN_POINT('',(3.E1,2.2E1,0.E0));
#799=DIRECTION('',(0.E0,0.E0,1.E0));
#800=DIRECTION('',(-1.E0,0.E0,0.E0));
#801=AXIS2_PLACEMENT_3D('',#798,#799,#800);
#802=CYLINDRICAL_SURFACE('',#801,2.5E0);
#803=ORIENTED_EDGE('',*,*,#494,.F.);
#804=ORIENTED_EDGE('',*,*,#793,.T.);
#806=ORIENTED_EDGE('',*,*,#805,.T.);
#807=ORIENTED_EDGE('',*,*,#789,.F.);
#808=EDGE_LOOP('',(#803,#804,#806,#807));
#809=FACE_OUTER_BOUND('',#808,.F.);
#810=ADVANCED_FACE('',(#809),#802,.T.);
#811=CARTESIAN_POINT('',(3.E1,2.2E1,6.E0));
#812=DIRECTION('',(0.E0,0.E0,1.E0));
#813=DIRECTION('',(-1.E0,0.E0,0.E0));
#814=AXIS2_PLACEMENT_3D('',#811,#812,#813);
#815=PLANE('',#814);
#816=ORIENTED_EDGE('',*,*,#791,.F.);
#817=ORIENTED_EDGE('',*,*,#805,.F.);
#818=EDGE_LOOP('',(#816,#817));
#819=FACE_OUTER_BOUND('',#818,.F.);
#820=ADVANCED_FACE('',(#819),#815,.T.);
#821=CARTESIAN_POINT('',(3.E1,5.2E1,0.E0));
#822=DIRECTION('',(0.E0,0.E0,1.E0));
#823=DIRECTION('',(-1.E0,0.E0,0.E0));
#824=AXIS2_PLACEMENT_3D('',#821,#822,#823);
#825=CYLINDRICAL_SURFACE('',#824,2.5E0);
#826=ORIENTED_EDGE('',*,*,#498,.F.);
#828=ORIENTED_EDGE('',*,*,#827,.T.);
#830=ORIENTED_EDGE('',*,*,#829,.T.);
#832=ORIENTED_EDGE('',*,*,#831,.F.);
#833=EDGE_LOOP('',(#826,#828,#830,#832));
#834=FACE_OUTER_BOUND('',#833,.F.);
#835=ADVANCED_FACE('',(#834),#825,.T.);
#836=CARTESIAN_POINT('',(3.E1,5.2E1,0.E0));
#837=DIRECTION('',(0.E0,0.E0,1.E0));
#838=DIRECTION('',(-1.E0,0.E0,0.E0));
#839=AXIS2_PLACEMENT_3D('',#836,#837,#838);
#840=CYLINDRICAL_SURFACE('',#839,2.5E0);
#841=ORIENTED_EDGE('',*,*,#500,.F.);
#842=ORIENTED_EDGE('',*,*,#831,.T.);
#844=ORIENTED_EDGE('',*,*,#843,.T.);
#845=ORIENTED_EDGE('',*,*,#827,.F.);
#846=EDGE_LOOP('',(#841,#842,#844,#845));
#847=FACE_OUTER_BOUND('',#846,.F.);
#848=ADVANCED_FACE('',(#847),#840,.T.);
#849=CARTESIAN_POINT('',(3.E1,5.2E1,6.E0));
#850=DIRECTION('',(0.E0,0.E0,1.E0));
#851=DIRECTION('',(-1.E0,0.E0,0.E0));
#852=AXIS2_PLACEMENT_3D('',#849,#850,#851);
#853=PLANE('',#852);
#854=ORIENTED_EDGE('',*,*,#829,.F.);
#855=ORIENTED_EDGE('',*,*,#843,.F.);
#856=EDGE_LOOP('',(#854,#855));
#857=FACE_OUTER_BOUND('',#856,.F.);
#858=ADVANCED_FACE('',(#857),#853,.T.);
#859=CARTESIAN_POINT('',(2.2E1,3.6E1,0.E0));
#860=DIRECTION('',(0.E0,0.E0,1.E0));
#861=DIRECTION('',(-1.E0,0.E0,0.E0));
#862=AXIS2_PLACEMENT_3D('',#859,#860,#861);
#863=CYLINDRICAL_SURFACE('',#862,2.5E0);
#864=ORIENTED_EDGE('',*,*,#504,.F.);
#866=ORIENTED_EDGE('',*,*,#865,.T.);
#868=ORIENTED_EDGE('',*,*,#867,.T.);
#870=ORIENTED_EDGE('',*,*,#869,.F.);
#871=EDGE_LOOP('',(#864,#866,#868,#870));
#872=FACE_OUTER_BOUND('',#871,.F.);
#873=ADVANCED_FACE('',(#872),#863,.T.);
#874=CARTESIAN_POINT('',(2.2E1,3.6E1,0.E0));
#875=DIRECTION('',(0.E0,0.E0,1.E0));
#876=DIRECTION('',(-1.E0,0.E0,0.E0));
#877=AXIS2_PLACEMENT_3D('',#874,#875,#876);
#878=CYLINDRICAL_SURFACE('',#877,2.5E0);
#879=ORIENTED_EDGE('',*,*,#506,.F.);
#880=ORIENTED_EDGE('',*,*,#869,.T.);
#882=ORIENTED_EDGE('',*,*,#881,.T.);
#883=ORIENTED_EDGE('',*,*,#865,.F.);
#884=EDGE_LOOP('',(#879,#880,#882,#883));
#885=FACE_OUTER_BOUND('',#884,.F.);
#886=ADVANCED_FACE('',(#885),#878,.T.);
#887=CARTESIAN_POINT('',(2.2E1,3.6E1,6.E0));
#888=DIRECTION('',(0.E0,0.E0,1.E0));
#889=DIRECTION('',(-1.E0,0.E0,0.E0));
#890=AXIS2_PLACEMENT_3D('',#887,#888,#889);
#891=PLANE('',#890);
#892=ORIENTED_EDGE('',*,*,#867,.F.);
#893=ORIENTED_EDGE('',*,*,#881,.F.);
#894=EDGE_LOOP('',(#892,#893));
#895=FACE_OUTER_BOUND('',#894,.F.);
#896=ADVANCED_FACE('',(#895),#891,.T.);
#898=CARTESIAN_POINT('',(4.2E1,5.2E1,-6.E0));
#899=DIRECTION('',(0.E0,0.E0,-1.E0));
#900=DIRECTION('',(0.E0,1.E0,0.E0));
#901=AXIS2_PLACEMENT_3D('',#898,#899,#900);
#903=CARTESIAN_POINT('',(4.2E1,5.2E1,-6.E0));
#904=DIRECTION('',(0.E0,0.E0,-1.E0));
#905=DIRECTION('',(0.E0,-1.E0,0.E0));
#906=AXIS2_PLACEMENT_3D('',#903,#904,#905);
#908=DIRECTION('',(0.E0,-8.571673007021E-1,5.150380749101E-1));
#909=VECTOR('',#908,2.916583493038E0);
#910=CARTESIAN_POINT('',(4.2E1,5.2E1,-7.502151547569E0));
#911=LINE('',#910,#909);
#912=DIRECTION('',(0.E0,8.571673007021E-1,5.150380749101E-1));
#913=VECTOR('',#912,2.916583493038E0);
#914=CARTESIAN_POINT('',(4.2E1,5.2E1,-7.502151547569E0));
#915=LINE('',#914,#913);
#916=CARTESIAN_POINT('',(4.2E1,5.2E1,-7.502151547569E0));
#917=CARTESIAN_POINT('',(4.2E1,4.95E1,-6.E0));
#918=VERTEX_POINT('',#916);
#919=VERTEX_POINT('',#917);
#920=CARTESIAN_POINT('',(4.2E1,5.45E1,-6.E0));
#921=VERTEX_POINT('',#920);
#922=CARTESIAN_POINT('',(4.2E1,5.2E1,-6.E0));
#923=DIRECTION('',(0.E0,0.E0,1.E0));
#924=DIRECTION('',(-1.E0,0.E0,0.E0));
#925=AXIS2_PLACEMENT_3D('',#922,#923,#924);
#926=PLANE('',#925);
#928=ORIENTED_EDGE('',*,*,#927,.T.);
#930=ORIENTED_EDGE('',*,*,#929,.T.);
#931=EDGE_LOOP('',(#928,#930));
#932=FACE_OUTER_BOUND('',#931,.F.);
#933=ADVANCED_FACE('',(#932),#926,.T.);
#934=CARTESIAN_POINT('',(4.2E1,5.2E1,-6.726346221824E0));
#935=DIRECTION('',(0.E0,0.E0,1.E0));
#936=DIRECTION('',(0.E0,-1.E0,0.E0));
#937=AXIS2_PLACEMENT_3D('',#934,#935,#936);
#938=CONICAL_SURFACE('',#937,1.291156885935E0,5.9E1);
#939=ORIENTED_EDGE('',*,*,#927,.F.);
#941=ORIENTED_EDGE('',*,*,#940,.F.);
#943=ORIENTED_EDGE('',*,*,#942,.T.);
#944=EDGE_LOOP('',(#939,#941,#943));
#945=FACE_OUTER_BOUND('',#944,.F.);
#946=ADVANCED_FACE('',(#945),#938,.T.);
#947=CARTESIAN_POINT('',(4.2E1,5.2E1,-6.726346221824E0));
#948=DIRECTION('',(0.E0,0.E0,1.E0));
#949=DIRECTION('',(0.E0,-1.E0,0.E0));
#950=AXIS2_PLACEMENT_3D('',#947,#948,#949);
#951=CONICAL_SURFACE('',#950,1.291156885935E0,5.9E1);
#952=ORIENTED_EDGE('',*,*,#929,.F.);
#953=ORIENTED_EDGE('',*,*,#942,.F.);
#954=ORIENTED_EDGE('',*,*,#940,.T.);
#955=EDGE_LOOP('',(#952,#953,#954));
#956=FACE_OUTER_BOUND('',#955,.F.);
#957=ADVANCED_FACE('',(#956),#951,.T.);
#959=CARTESIAN_POINT('',(3.E1,5.2E1,-6.E0));
#960=DIRECTION('',(0.E0,0.E0,-1.E0));
#961=DIRECTION('',(0.E0,1.E0,0.E0));
#962=AXIS2_PLACEMENT_3D('',#959,#960,#961);
#964=CARTESIAN_POINT('',(3.E1,5.2E1,-6.E0));
#965=DIRECTION('',(0.E0,0.E0,-1.E0));
#966=DIRECTION('',(0.E0,-1.E0,0.E0));
#967=AXIS2_PLACEMENT_3D('',#964,#965,#966);
#969=DIRECTION('',(0.E0,-8.571673007021E-1,5.150380749101E-1));
#970=VECTOR('',#969,2.916583493038E0);
#971=CARTESIAN_POINT('',(3.E1,5.2E1,-7.502151547569E0));
#972=LINE('',#971,#970);
#973=DIRECTION('',(0.E0,8.571673007021E-1,5.150380749101E-1));
#974=VECTOR('',#973,2.916583493038E0);
#975=CARTESIAN_POINT('',(3.E1,5.2E1,-7.502151547569E0));
#976=LINE('',#975,#974);
#977=CARTESIAN_POINT('',(3.E1,5.2E1,-7.502151547569E0));
#978=CARTESIAN_POINT('',(3.E1,4.95E1,-6.E0));
#979=VERTEX_POINT('',#977);
#980=VERTEX_POINT('',#978);
#981=CARTESIAN_POINT('',(3.E1,5.45E1,-6.E0));
#982=VERTEX_POINT('',#981);
#983=CARTESIAN_POINT('',(3.E1,5.2E1,-6.E0));
#984=DIRECTION('',(0.E0,0.E0,1.E0));
#985=DIRECTION('',(-1.E0,0.E0,0.E0));
#986=AXIS2_PLACEMENT_3D('',#983,#984,#985);
#987=PLANE('',#986);
#989=ORIENTED_EDGE('',*,*,#988,.T.);
#991=ORIENTED_EDGE('',*,*,#990,.T.);
#992=EDGE_LOOP('',(#989,#991));
#993=FACE_OUTER_BOUND('',#992,.F.);
#994=ADVANCED_FACE('',(#993),#987,.T.);
#995=CARTESIAN_POINT('',(3.E1,5.2E1,-6.726346221824E0));
#996=DIRECTION('',(0.E0,0.E0,1.E0));
#997=DIRECTION('',(0.E0,-1.E0,0.E0));
#998=AXIS2_PLACEMENT_3D('',#995,#996,#997);
#999=CONICAL_SURFACE('',#998,1.291156885935E0,5.9E1);
#1000=ORIENTED_EDGE('',*,*,#988,.F.);
#1002=ORIENTED_EDGE('',*,*,#1001,.F.);
#1004=ORIENTED_EDGE('',*,*,#1003,.T.);
#1005=EDGE_LOOP('',(#1000,#1002,#1004));
#1006=FACE_OUTER_BOUND('',#1005,.F.);
#1007=ADVANCED_FACE('',(#1006),#999,.T.);
#1008=CARTESIAN_POINT('',(3.E1,5.2E1,-6.726346221824E0));
#1009=DIRECTION('',(0.E0,0.E0,1.E0));
#1010=DIRECTION('',(0.E0,-1.E0,0.E0));
#1011=AXIS2_PLACEMENT_3D('',#1008,#1009,#1010);
#1012=CONICAL_SURFACE('',#1011,1.291156885935E0,5.9E1);
#1013=ORIENTED_EDGE('',*,*,#990,.F.);
#1014=ORIENTED_EDGE('',*,*,#1003,.F.);
#1015=ORIENTED_EDGE('',*,*,#1001,.T.);
#1016=EDGE_LOOP('',(#1013,#1014,#1015));
#1017=FACE_OUTER_BOUND('',#1016,.F.);
#1018=ADVANCED_FACE('',(#1017),#1012,.T.);
#1020=DIRECTION('',(0.E0,-8.571673007021E-1,5.150380749101E-1));
#1021=VECTOR('',#1020,2.916583493038E0);
#1022=CARTESIAN_POINT('',(3.E1,4.322330470336E0,-7.502151547569E0));
#1023=LINE('',#1022,#1021);
#1024=DIRECTION('',(0.E0,8.571673007021E-1,5.150380749101E-1));
#1025=VECTOR('',#1024,2.916583493038E0);
#1026=CARTESIAN_POINT('',(3.E1,4.322330470336E0,-7.502151547569E0));
#1027=LINE('',#1026,#1025);
#1028=CARTESIAN_POINT('',(3.E1,4.322330470336E0,-6.E0));
#1029=DIRECTION('',(0.E0,0.E0,-1.E0));
#1030=DIRECTION('',(0.E0,1.E0,0.E0));
#1031=AXIS2_PLACEMENT_3D('',#1028,#1029,#1030);
#1033=CARTESIAN_POINT('',(3.E1,4.322330470336E0,-6.E0));
#1034=DIRECTION('',(0.E0,0.E0,-1.E0));
#1035=DIRECTION('',(0.E0,-1.E0,0.E0));
#1036=AXIS2_PLACEMENT_3D('',#1033,#1034,#1035);
#1038=CARTESIAN_POINT('',(3.E1,4.322330470336E0,-7.502151547569E0));
#1039=CARTESIAN_POINT('',(3.E1,1.822330470336E0,-6.E0));
#1040=VERTEX_POINT('',#1038);
#1041=VERTEX_POINT('',#1039);
#1042=CARTESIAN_POINT('',(3.E1,6.822330470336E0,-6.E0));
#1043=VERTEX_POINT('',#1042);
#1044=CARTESIAN_POINT('',(3.E1,4.322330470336E0,-6.726346221824E0));
#1045=DIRECTION('',(0.E0,0.E0,1.E0));
#1046=DIRECTION('',(0.E0,-1.E0,0.E0));
#1047=AXIS2_PLACEMENT_3D('',#1044,#1045,#1046);
#1048=CONICAL_SURFACE('',#1047,1.291156885935E0,5.9E1);
#1050=ORIENTED_EDGE('',*,*,#1049,.F.);
#1052=ORIENTED_EDGE('',*,*,#1051,.F.);
#1054=ORIENTED_EDGE('',*,*,#1053,.T.);
#1055=EDGE_LOOP('',(#1050,#1052,#1054));
#1056=FACE_OUTER_BOUND('',#1055,.F.);
#1057=ADVANCED_FACE('',(#1056),#1048,.T.);
#1058=CARTESIAN_POINT('',(3.E1,4.322330470336E0,-6.E0));
#1059=DIRECTION('',(0.E0,0.E0,1.E0));
#1060=DIRECTION('',(-1.E0,0.E0,0.E0));
#1061=AXIS2_PLACEMENT_3D('',#1058,#1059,#1060);
#1062=PLANE('',#1061);
#1064=ORIENTED_EDGE('',*,*,#1063,.T.);
#1065=ORIENTED_EDGE('',*,*,#1049,.T.);
#1066=EDGE_LOOP('',(#1064,#1065));
#1067=FACE_OUTER_BOUND('',#1066,.F.);
#1068=ADVANCED_FACE('',(#1067),#1062,.T.);
#1069=CARTESIAN_POINT('',(3.E1,4.322330470336E0,-6.726346221824E0));
#1070=DIRECTION('',(0.E0,0.E0,1.E0));
#1071=DIRECTION('',(0.E0,-1.E0,0.E0));
#1072=AXIS2_PLACEMENT_3D('',#1069,#1070,#1071);
#1073=CONICAL_SURFACE('',#1072,1.291156885935E0,5.9E1);
#1074=ORIENTED_EDGE('',*,*,#1063,.F.);
#1075=ORIENTED_EDGE('',*,*,#1053,.F.);
#1076=ORIENTED_EDGE('',*,*,#1051,.T.);
#1077=EDGE_LOOP('',(#1074,#1075,#1076));
#1078=FACE_OUTER_BOUND('',#1077,.F.);
#1079=ADVANCED_FACE('',(#1078),#1073,.T.);
#1081=CARTESIAN_POINT('',(3.E1,2.2E1,-6.E0));
#1082=DIRECTION('',(0.E0,0.E0,-1.E0));
#1083=DIRECTION('',(0.E0,1.E0,0.E0));
#1084=AXIS2_PLACEMENT_3D('',#1081,#1082,#1083);
#1086=CARTESIAN_POINT('',(3.E1,2.2E1,-6.E0));
#1087=DIRECTION('',(0.E0,0.E0,-1.E0));
#1088=DIRECTION('',(0.E0,-1.E0,0.E0));
#1089=AXIS2_PLACEMENT_3D('',#1086,#1087,#1088);
#1091=DIRECTION('',(0.E0,-8.571673007021E-1,5.150380749101E-1));
#1092=VECTOR('',#1091,2.916583493038E0);
#1093=CARTESIAN_POINT('',(3.E1,2.2E1,-7.502151547569E0));
#1094=LINE('',#1093,#1092);
#1095=DIRECTION('',(0.E0,8.571673007021E-1,5.150380749101E-1));
#1096=VECTOR('',#1095,2.916583493038E0);
#1097=CARTESIAN_POINT('',(3.E1,2.2E1,-7.502151547569E0));
#1098=LINE('',#1097,#1096);
#1099=CARTESIAN_POINT('',(3.E1,2.2E1,-7.502151547569E0));
#1100=CARTESIAN_POINT('',(3.E1,1.95E1,-6.E0));
#1101=VERTEX_POINT('',#1099);
#1102=VERTEX_POINT('',#1100);
#1103=CARTESIAN_POINT('',(3.E1,2.45E1,-6.E0));
#1104=VERTEX_POINT('',#1103);
#1105=CARTESIAN_POINT('',(3.E1,2.2E1,-6.E0));
#1106=DIRECTION('',(0.E0,0.E0,1.E0));
#1107=DIRECTION('',(-1.E0,0.E0,0.E0));
#1108=AXIS2_PLACEMENT_3D('',#1105,#1106,#1107);
#1109=PLANE('',#1108);
#1111=ORIENTED_EDGE('',*,*,#1110,.T.);
#1113=ORIENTED_EDGE('',*,*,#1112,.T.);
#1114=EDGE_LOOP('',(#1111,#1113));
#1115=FACE_OUTER_BOUND('',#1114,.F.);
#1116=ADVANCED_FACE('',(#1115),#1109,.T.);
#1117=CARTESIAN_POINT('',(3.E1,2.2E1,-6.726346221824E0));
#1118=DIRECTION('',(0.E0,0.E0,1.E0));
#1119=DIRECTION('',(0.E0,-1.E0,0.E0));
#1120=AXIS2_PLACEMENT_3D('',#1117,#1118,#1119);
#1121=CONICAL_SURFACE('',#1120,1.291156885935E0,5.9E1);
#1122=ORIENTED_EDGE('',*,*,#1110,.F.);
#1124=ORIENTED_EDGE('',*,*,#1123,.F.);
#1126=ORIENTED_EDGE('',*,*,#1125,.T.);
#1127=EDGE_LOOP('',(#1122,#1124,#1126));
#1128=FACE_OUTER_BOUND('',#1127,.F.);
#1129=ADVANCED_FACE('',(#1128),#1121,.T.);
#1130=CARTESIAN_POINT('',(3.E1,2.2E1,-6.726346221824E0));
#1131=DIRECTION('',(0.E0,0.E0,1.E0));
#1132=DIRECTION('',(0.E0,-1.E0,0.E0));
#1133=AXIS2_PLACEMENT_3D('',#1130,#1131,#1132);
#1134=CONICAL_SURFACE('',#1133,1.291156885935E0,5.9E1);
#1135=ORIENTED_EDGE('',*,*,#1112,.F.);
#1136=ORIENTED_EDGE('',*,*,#1125,.F.);
#1137=ORIENTED_EDGE('',*,*,#1123,.T.);
#1138=EDGE_LOOP('',(#1135,#1136,#1137));
#1139=FACE_OUTER_BOUND('',#1138,.F.);
#1140=ADVANCED_FACE('',(#1139),#1134,.T.);
#1142=CARTESIAN_POINT('',(2.2E1,3.6E1,-6.E0));
#1143=DIRECTION('',(0.E0,0.E0,-1.E0));
#1144=DIRECTION('',(0.E0,1.E0,0.E0));
#1145=AXIS2_PLACEMENT_3D('',#1142,#1143,#1144);
#1147=CARTESIAN_POINT('',(2.2E1,3.6E1,-6.E0));
#1148=DIRECTION('',(0.E0,0.E0,-1.E0));
#1149=DIRECTION('',(0.E0,-1.E0,0.E0));
#1150=AXIS2_PLACEMENT_3D('',#1147,#1148,#1149);
#1152=DIRECTION('',(0.E0,-8.571673007021E-1,5.150380749101E-1));
#1153=VECTOR('',#1152,2.916583493038E0);
#1154=CARTESIAN_POINT('',(2.2E1,3.6E1,-7.502151547569E0));
#1155=LINE('',#1154,#1153);
#1156=DIRECTION('',(0.E0,8.571673007021E-1,5.150380749101E-1));
#1157=VECTOR('',#1156,2.916583493038E0);
#1158=CARTESIAN_POINT('',(2.2E1,3.6E1,-7.502151547569E0));
#1159=LINE('',#1158,#1157);
#1160=CARTESIAN_POINT('',(2.2E1,3.6E1,-7.502151547569E0));
#1161=CARTESIAN_POINT('',(2.2E1,3.35E1,-6.E0));
#1162=VERTEX_POINT('',#1160);
#1163=VERTEX_POINT('',#1161);
#1164=CARTESIAN_POINT('',(2.2E1,3.85E1,-6.E0));
#1165=VERTEX_POINT('',#1164);
#1166=CARTESIAN_POINT('',(2.2E1,3.6E1,-6.E0));
#1167=DIRECTION('',(0.E0,0.E0,1.E0));
#1168=DIRECTION('',(-1.E0,0.E0,0.E0));
#1169=AXIS2_PLACEMENT_3D('',#1166,#1167,#1168);
#1170=PLANE('',#1169);
#1172=ORIENTED_EDGE('',*,*,#1171,.T.);
#1174=ORIENTED_EDGE('',*,*,#1173,.T.);
#1175=EDGE_LOOP('',(#1172,#1174));
#1176=FACE_OUTER_BOUND('',#1175,.F.);
#1177=ADVANCED_FACE('',(#1176),#1170,.T.);
#1178=CARTESIAN_POINT('',(2.2E1,3.6E1,-6.726346221824E0));
#1179=DIRECTION('',(0.E0,0.E0,1.E0));
#1180=DIRECTION('',(0.E0,-1.E0,0.E0));
#1181=AXIS2_PLACEMENT_3D('',#1178,#1179,#1180);
#1182=CONICAL_SURFACE('',#1181,1.291156885935E0,5.9E1);
#1183=ORIENTED_EDGE('',*,*,#1171,.F.);
#1185=ORIENTED_EDGE('',*,*,#1184,.F.);
#1187=ORIENTED_EDGE('',*,*,#1186,.T.);
#1188=EDGE_LOOP('',(#1183,#1185,#1187));
#1189=FACE_OUTER_BOUND('',#1188,.F.);
#1190=ADVANCED_FACE('',(#1189),#1182,.T.);
#1191=CARTESIAN_POINT('',(2.2E1,3.6E1,-6.726346221824E0));
#1192=DIRECTION('',(0.E0,0.E0,1.E0));
#1193=DIRECTION('',(0.E0,-1.E0,0.E0));
#1194=AXIS2_PLACEMENT_3D('',#1191,#1192,#1193);
#1195=CONICAL_SURFACE('',#1194,1.291156885935E0,5.9E1);
#1196=ORIENTED_EDGE('',*,*,#1173,.F.);
#1197=ORIENTED_EDGE('',*,*,#1186,.F.);
#1198=ORIENTED_EDGE('',*,*,#1184,.T.);
#1199=EDGE_LOOP('',(#1196,#1197,#1198));
#1200=FACE_OUTER_BOUND('',#1199,.F.);
#1201=ADVANCED_FACE('',(#1200),#1195,.T.);
#1203=ORIENTED_CLOSED_SHELL('',*,#958,.F.);
#1204=ORIENTED_CLOSED_SHELL('',*,#1019,.F.);
#1205=ORIENTED_CLOSED_SHELL('',*,#1080,.F.);
#1206=ORIENTED_CLOSED_SHELL('',*,#1141,.F.);
#1207=ORIENTED_CLOSED_SHELL('',*,#1202,.F.);
#1210=DIMENSIONAL_EXPONENTS(0.E0,0.E0,0.E0,0.E0,0.E0,0.E0,0.E0);
#1212=PLANE_ANGLE_MEASURE_WITH_UNIT(PLANE_ANGLE_MEASURE(1.745329251994E-2),
#1211);
#1213=(CONVERSION_BASED_UNIT('DEGREE',#1212)NAMED_UNIT(*)PLANE_ANGLE_UNIT());
#1215=UNCERTAINTY_MEASURE_WITH_UNIT(LENGTH_MEASURE(8.002179509513E-3),#1209,
'closure',
'Maximum model space distance between geometric entities at asserted connectivities');
#1216=(GEOMETRIC_REPRESENTATION_CONTEXT(3)GLOBAL_UNCERTAINTY_ASSIGNED_CONTEXT((
#1215))GLOBAL_UNIT_ASSIGNED_CONTEXT((#1209,#1213,#1214))REPRESENTATION_CONTEXT(
'ID1','3'));
#1218=APPLICATION_CONTEXT(
'CONFIGURATION CONTROLLED 3D DESIGNS OF MECHANICAL PARTS AND ASSEMBLIES');
#1219=APPLICATION_PROTOCOL_DEFINITION('international standard',
'config_control_design',1994,#1218);
#1220=DESIGN_CONTEXT('',#1218,'design');
#1221=MECHANICAL_CONTEXT('',#1218,'mechanical');
#1222=PRODUCT('ALIGNMENT_FIXTURE','ALIGNMENT_FIXTURE','NOT SPECIFIED',(#1221));
#1223=PRODUCT_DEFINITION_FORMATION_WITH_SPECIFIED_SOURCE('1','LAST_VERSION',
#1222,.MADE.);
#1227=PRODUCT_CATEGORY('part','');
#1228=PRODUCT_RELATED_PRODUCT_CATEGORY('detail','',(#1222));
#1229=PRODUCT_CATEGORY_RELATIONSHIP('','',#1227,#1228);
#1230=SECURITY_CLASSIFICATION_LEVEL('unclassified');
#1231=SECURITY_CLASSIFICATION('','',#1230);
#1232=CC_DESIGN_SECURITY_CLASSIFICATION(#1231,(#1223));
#1233=APPROVAL_STATUS('approved');
#1234=APPROVAL(#1233,'');
#1235=CC_DESIGN_APPROVAL(#1234,(#1231,#1223,#1224));
#1236=CALENDAR_DATE(125,7,11);
#1237=COORDINATED_UNIVERSAL_TIME_OFFSET(8,0,.AHEAD.);
#1238=LOCAL_TIME(20,21,2.7E1,#1237);
#1239=DATE_AND_TIME(#1236,#1238);
#1240=APPROVAL_DATE_TIME(#1239,#1234);
#1241=DATE_TIME_ROLE('creation_date');
#1242=CC_DESIGN_DATE_AND_TIME_ASSIGNMENT(#1239,#1241,(#1224));
#1243=DATE_TIME_ROLE('classification_date');
#1244=CC_DESIGN_DATE_AND_TIME_ASSIGNMENT(#1239,#1243,(#1231));
#1245=PERSON('UNSPECIFIED','UNSPECIFIED',$,$,$,$);
#1246=ORGANIZATION('UNSPECIFIED','UNSPECIFIED','UNSPECIFIED');
#1247=PERSON_AND_ORGANIZATION(#1245,#1246);
#1248=APPROVAL_ROLE('approver');
#1249=APPROVAL_PERSON_ORGANIZATION(#1247,#1234,#1248);
#1250=PERSON_AND_ORGANIZATION_ROLE('creator');
#1251=CC_DESIGN_PERSON_AND_ORGANIZATION_ASSIGNMENT(#1247,#1250,(#1223,#1224));
#1252=PERSON_AND_ORGANIZATION_ROLE('design_supplier');
#1253=CC_DESIGN_PERSON_AND_ORGANIZATION_ASSIGNMENT(#1247,#1252,(#1223));
#1254=PERSON_AND_ORGANIZATION_ROLE('classification_officer');
#1255=CC_DESIGN_PERSON_AND_ORGANIZATION_ASSIGNMENT(#1247,#1254,(#1231));
#1256=PERSON_AND_ORGANIZATION_ROLE('design_owner');
#1257=CC_DESIGN_PERSON_AND_ORGANIZATION_ASSIGNMENT(#1247,#1256,(#1222));
#5=CIRCLE('',#4,2.5175E0);
#14=CIRCLE('',#13,2.5175E0);
#23=CIRCLE('',#22,2.5175E0);
#36=CIRCLE('',#35,2.5E0);
#41=CIRCLE('',#40,2.5E0);
#46=CIRCLE('',#45,2.5E0);
#51=CIRCLE('',#50,2.5E0);
#56=CIRCLE('',#55,2.5E0);
#61=CIRCLE('',#60,2.5E0);
#66=CIRCLE('',#65,2.5E0);
#71=CIRCLE('',#70,2.5E0);
#76=CIRCLE('',#75,2.5E0);
#81=CIRCLE('',#80,2.5E0);
#86=CIRCLE('',#85,3.5E0);
#91=CIRCLE('',#90,3.5E0);
#96=CIRCLE('',#95,3.5E0);
#101=CIRCLE('',#100,3.5E0);
#114=CIRCLE('',#113,3.5E0);
#119=CIRCLE('',#118,3.5E0);
#124=CIRCLE('',#123,3.5E0);
#129=CIRCLE('',#128,3.5E0);
#166=CIRCLE('',#165,2.5175E0);
#187=CIRCLE('',#186,2.5175E0);
#196=CIRCLE('',#195,2.5175E0);
#205=CIRCLE('',#204,2.5175E0);
#218=CIRCLE('',#217,2.5175E0);
#239=CIRCLE('',#238,2.5E0);
#244=CIRCLE('',#243,2.5E0);
#257=CIRCLE('',#256,2.5E0);
#262=CIRCLE('',#261,2.5E0);
#275=CIRCLE('',#274,2.5E0);
#280=CIRCLE('',#279,2.5E0);
#293=CIRCLE('',#292,2.5E0);
#298=CIRCLE('',#297,2.5E0);
#311=CIRCLE('',#310,2.5E0);
#316=CIRCLE('',#315,2.5E0);
#410=EDGE_CURVE('',#356,#351,#5,.T.);
#412=EDGE_CURVE('',#351,#352,#174,.T.);
#414=EDGE_CURVE('',#352,#354,#114,.T.);
#416=EDGE_CURVE('',#354,#356,#170,.T.);
#426=EDGE_CURVE('',#358,#360,#14,.T.);
#428=EDGE_CURVE('',#358,#351,#182,.T.);
#431=EDGE_CURVE('',#356,#360,#178,.T.);
#441=EDGE_CURVE('',#358,#366,#9,.T.);
#444=EDGE_CURVE('',#368,#360,#18,.T.);
#446=EDGE_CURVE('',#368,#366,#101,.T.);
#457=EDGE_CURVE('',#366,#368,#96,.T.);
#460=EDGE_CURVE('',#360,#358,#23,.T.);
#470=EDGE_CURVE('',#396,#392,#27,.T.);
#472=EDGE_CURVE('',#392,#400,#31,.T.);
#474=EDGE_CURVE('',#404,#400,#141,.T.);
#476=EDGE_CURVE('',#396,#404,#161,.T.);
#480=EDGE_CURVE('',#370,#372,#36,.T.);
#482=EDGE_CURVE('',#372,#370,#41,.T.);
#486=EDGE_CURVE('',#374,#376,#46,.T.);
#488=EDGE_CURVE('',#376,#374,#51,.T.);
#492=EDGE_CURVE('',#378,#380,#56,.T.);
#494=EDGE_CURVE('',#380,#378,#61,.T.);
#498=EDGE_CURVE('',#382,#384,#66,.T.);
#500=EDGE_CURVE('',#384,#382,#71,.T.);
#504=EDGE_CURVE('',#386,#388,#76,.T.);
#506=EDGE_CURVE('',#388,#386,#81,.T.);
#510=EDGE_CURVE('',#362,#364,#86,.T.);
#512=EDGE_CURVE('',#364,#362,#91,.T.);
#526=EDGE_CURVE('',#391,#395,#109,.T.);
#528=EDGE_CURVE('',#391,#392,#105,.T.);
#531=EDGE_CURVE('',#395,#396,#157,.T.);
#541=EDGE_CURVE('',#391,#399,#133,.T.);
#544=EDGE_CURVE('',#403,#395,#153,.T.);
#546=EDGE_CURVE('',#399,#403,#145,.T.);
#551=EDGE_CURVE('',#354,#352,#119,.T.);
#555=EDGE_CURVE('',#340,#342,#124,.T.);
#557=EDGE_CURVE('',#342,#340,#129,.T.);
#570=EDGE_CURVE('',#399,#400,#137,.T.);
#583=EDGE_CURVE('',#403,#404,#149,.T.);
#605=EDGE_CURVE('',#351,#356,#166,.T.);
#630=EDGE_CURVE('',#344,#339,#187,.T.);
#632=EDGE_CURVE('',#339,#340,#226,.T.);
#635=EDGE_CURVE('',#342,#344,#222,.T.);
#645=EDGE_CURVE('',#346,#348,#196,.T.);
#647=EDGE_CURVE('',#346,#339,#213,.T.);
#650=EDGE_CURVE('',#344,#348,#209,.T.);
#660=EDGE_CURVE('',#346,#362,#191,.T.);
#663=EDGE_CURVE('',#364,#348,#200,.T.);
#677=EDGE_CURVE('',#348,#346,#205,.T.);
#689=EDGE_CURVE('',#339,#344,#218,.T.);
#713=EDGE_CURVE('',#370,#319,#234,.T.);
#715=EDGE_CURVE('',#319,#320,#239,.T.);
#717=EDGE_CURVE('',#372,#320,#230,.T.);
#729=EDGE_CURVE('',#320,#319,#244,.T.);
#751=EDGE_CURVE('',#374,#323,#252,.T.);
#753=EDGE_CURVE('',#323,#324,#257,.T.);
#755=EDGE_CURVE('',#376,#324,#248,.T.);
#767=EDGE_CURVE('',#324,#323,#262,.T.);
#789=EDGE_CURVE('',#378,#327,#270,.T.);
#791=EDGE_CURVE('',#327,#328,#275,.T.);
#793=EDGE_CURVE('',#380,#328,#266,.T.);
#805=EDGE_CURVE('',#328,#327,#280,.T.);
#827=EDGE_CURVE('',#382,#331,#288,.T.);
#829=EDGE_CURVE('',#331,#332,#293,.T.);
#831=EDGE_CURVE('',#384,#332,#284,.T.);
#843=EDGE_CURVE('',#332,#331,#298,.T.);
#865=EDGE_CURVE('',#386,#335,#306,.T.);
#867=EDGE_CURVE('',#335,#336,#311,.T.);
#869=EDGE_CURVE('',#388,#336,#302,.T.);
#881=EDGE_CURVE('',#336,#335,#316,.T.);
#897=CLOSED_SHELL('',(#420,#435,#450,#464,#520,#535,#561,#574,#587,#599,#612,
#624,#639,#654,#668,#681,#694,#706,#721,#734,#744,#759,#772,#782,#797,#810,#820,
#835,#848,#858,#873,#886,#896));
#902=CIRCLE('',#901,2.5E0);
#907=CIRCLE('',#906,2.5E0);
#927=EDGE_CURVE('',#921,#919,#902,.T.);
#929=EDGE_CURVE('',#919,#921,#907,.T.);
#940=EDGE_CURVE('',#918,#921,#915,.T.);
#942=EDGE_CURVE('',#918,#919,#911,.T.);
#958=CLOSED_SHELL('',(#933,#946,#957));
#963=CIRCLE('',#962,2.5E0);
#968=CIRCLE('',#967,2.5E0);
#988=EDGE_CURVE('',#982,#980,#963,.T.);
#990=EDGE_CURVE('',#980,#982,#968,.T.);
#1001=EDGE_CURVE('',#979,#982,#976,.T.);
#1003=EDGE_CURVE('',#979,#980,#972,.T.);
#1019=CLOSED_SHELL('',(#994,#1007,#1018));
#1032=CIRCLE('',#1031,2.5E0);
#1037=CIRCLE('',#1036,2.5E0);
#1049=EDGE_CURVE('',#1041,#1043,#1037,.T.);
#1051=EDGE_CURVE('',#1040,#1041,#1023,.T.);
#1053=EDGE_CURVE('',#1040,#1043,#1027,.T.);
#1063=EDGE_CURVE('',#1043,#1041,#1032,.T.);
#1080=CLOSED_SHELL('',(#1057,#1068,#1079));
#1085=CIRCLE('',#1084,2.5E0);
#1090=CIRCLE('',#1089,2.5E0);
#1110=EDGE_CURVE('',#1104,#1102,#1085,.T.);
#1112=EDGE_CURVE('',#1102,#1104,#1090,.T.);
#1123=EDGE_CURVE('',#1101,#1104,#1098,.T.);
#1125=EDGE_CURVE('',#1101,#1102,#1094,.T.);
#1141=CLOSED_SHELL('',(#1116,#1129,#1140));
#1146=CIRCLE('',#1145,2.5E0);
#1151=CIRCLE('',#1150,2.5E0);
#1171=EDGE_CURVE('',#1165,#1163,#1146,.T.);
#1173=EDGE_CURVE('',#1163,#1165,#1151,.T.);
#1184=EDGE_CURVE('',#1162,#1165,#1159,.T.);
#1186=EDGE_CURVE('',#1162,#1163,#1155,.T.);
#1202=CLOSED_SHELL('',(#1177,#1190,#1201));
#1208=BREP_WITH_VOIDS('',#897,(#1203,#1204,#1205,#1206,#1207));
#1209=(LENGTH_UNIT()NAMED_UNIT(*)SI_UNIT(.MILLI.,.METRE.));
#1211=(NAMED_UNIT(*)PLANE_ANGLE_UNIT()SI_UNIT($,.RADIAN.));
#1214=(NAMED_UNIT(*)SI_UNIT($,.STERADIAN.)SOLID_ANGLE_UNIT());
#1217=ADVANCED_BREP_SHAPE_REPRESENTATION('',(#1208),#1216);
#1224=PRODUCT_DEFINITION('design','',#1223,#1220);
#1225=PRODUCT_DEFINITION_SHAPE('','SHAPE FOR ALIGNMENT_FIXTURE.',#1224);
#1226=SHAPE_DEFINITION_REPRESENTATION(#1225,#1217);
ENDSEC;
END-ISO-10303-21;
