ISO-10303-21;
HEADER;
FILE_DESCRIPTION((''),'2;1');
FILE_NAME('INFEED_FIXTURE','2025-11-07T20:20:22',('AN515'),(''),
'CREO PARAMETRIC BY PTC INC, 2022073','CREO PARAMETRIC BY PTC INC, 2022073','');
FILE_SCHEMA(('CONFIG_CONTROL_DESIGN'));
ENDSEC;
DATA;
#1=CARTESIAN_POINT('',(2.1E1,4.E0,-9.0175E0));
#2=DIRECTION('',(0.E0,0.E0,-1.E0));
#3=DIRECTION('',(0.E0,-1.E0,0.E0));
#4=AXIS2_PLACEMENT_3D('',#1,#2,#3);
#6=DIRECTION('',(0.E0,-7.071067811865E-1,7.071067811865E-1));
#7=VECTOR('',#6,1.389464825032E0);
#8=CARTESIAN_POINT('',(2.1E1,7.5E0,-1.E1));
#9=LINE('',#8,#7);
#10=DIRECTION('',(0.E0,-7.071067811865E-1,-7.071067811865E-1));
#11=VECTOR('',#10,1.389464825032E0);
#12=CARTESIAN_POINT('',(2.1E1,1.4825E0,-9.0175E0));
#13=LINE('',#12,#11);
#14=DIRECTION('',(0.E0,0.E0,1.E0));
#15=VECTOR('',#14,8.035E0);
#16=CARTESIAN_POINT('',(2.1E1,6.5175E0,-9.0175E0));
#17=LINE('',#16,#15);
#18=DIRECTION('',(0.E0,0.E0,-1.E0));
#19=VECTOR('',#18,8.035E0);
#20=CARTESIAN_POINT('',(2.1E1,1.4825E0,-9.825E-1));
#21=LINE('',#20,#19);
#22=CARTESIAN_POINT('',(2.1E1,4.E0,-9.825E-1));
#23=DIRECTION('',(0.E0,0.E0,1.E0));
#24=DIRECTION('',(0.E0,1.E0,0.E0));
#25=AXIS2_PLACEMENT_3D('',#22,#23,#24);
#27=DIRECTION('',(0.E0,-7.071067811865E-1,7.071067811865E-1));
#28=VECTOR('',#27,1.389464825032E0);
#29=CARTESIAN_POINT('',(2.1E1,1.4825E0,-9.825E-1));
#30=LINE('',#29,#28);
#31=CARTESIAN_POINT('',(2.1E1,4.E0,-9.825E-1));
#32=DIRECTION('',(0.E0,0.E0,1.E0));
#33=DIRECTION('',(0.E0,-1.E0,0.E0));
#34=AXIS2_PLACEMENT_3D('',#31,#32,#33);
#36=DIRECTION('',(0.E0,-7.071067811865E-1,-7.071067811865E-1));
#37=VECTOR('',#36,1.389464825032E0);
#38=CARTESIAN_POINT('',(2.1E1,7.5E0,0.E0));
#39=LINE('',#38,#37);
#40=CARTESIAN_POINT('',(2.1E1,4.E0,-9.0175E0));
#41=DIRECTION('',(0.E0,0.E0,-1.E0));
#42=DIRECTION('',(0.E0,1.E0,0.E0));
#43=AXIS2_PLACEMENT_3D('',#40,#41,#42);
#45=DIRECTION('',(0.E0,-1.E0,0.E0));
#46=VECTOR('',#45,6.2E1);
#47=CARTESIAN_POINT('',(1.2E1,6.E1,-1.E1));
#48=LINE('',#47,#46);
#49=CARTESIAN_POINT('',(5.1E1,5.4E1,-1.E1));
#50=DIRECTION('',(0.E0,0.E0,1.E0));
#51=DIRECTION('',(0.E0,-1.E0,0.E0));
#52=AXIS2_PLACEMENT_3D('',#49,#50,#51);
#54=CARTESIAN_POINT('',(5.1E1,5.4E1,-1.E1));
#55=DIRECTION('',(0.E0,0.E0,1.E0));
#56=DIRECTION('',(0.E0,1.E0,0.E0));
#57=AXIS2_PLACEMENT_3D('',#54,#55,#56);
#59=CARTESIAN_POINT('',(2.1E1,4.E0,-1.E1));
#60=DIRECTION('',(0.E0,0.E0,1.E0));
#61=DIRECTION('',(0.E0,-1.E0,0.E0));
#62=AXIS2_PLACEMENT_3D('',#59,#60,#61);
#64=CARTESIAN_POINT('',(2.1E1,4.E0,-1.E1));
#65=DIRECTION('',(0.E0,0.E0,1.E0));
#66=DIRECTION('',(0.E0,1.E0,0.E0));
#67=AXIS2_PLACEMENT_3D('',#64,#65,#66);
#69=DIRECTION('',(1.E0,0.E0,0.E0));
#70=VECTOR('',#69,4.8E1);
#71=CARTESIAN_POINT('',(1.2E1,6.E1,-1.E1));
#72=LINE('',#71,#70);
#73=DIRECTION('',(0.E0,0.E0,1.E0));
#74=VECTOR('',#73,1.E1);
#75=CARTESIAN_POINT('',(6.E1,6.E1,-1.E1));
#76=LINE('',#75,#74);
#77=DIRECTION('',(0.E0,1.E0,0.E0));
#78=VECTOR('',#77,6.2E1);
#79=CARTESIAN_POINT('',(1.2E1,-2.E0,0.E0));
#80=LINE('',#79,#78);
#81=DIRECTION('',(1.E0,0.E0,0.E0));
#82=VECTOR('',#81,4.8E1);
#83=CARTESIAN_POINT('',(1.2E1,6.E1,0.E0));
#84=LINE('',#83,#82);
#85=CARTESIAN_POINT('',(3.E1,4.322330470336E0,0.E0));
#86=DIRECTION('',(0.E0,0.E0,1.E0));
#87=DIRECTION('',(1.E0,0.E0,0.E0));
#88=AXIS2_PLACEMENT_3D('',#85,#86,#87);
#90=CARTESIAN_POINT('',(3.E1,4.322330470336E0,0.E0));
#91=DIRECTION('',(0.E0,0.E0,1.E0));
#92=DIRECTION('',(-1.E0,0.E0,0.E0));
#93=AXIS2_PLACEMENT_3D('',#90,#91,#92);
#95=CARTESIAN_POINT('',(4.2E1,5.2E1,0.E0));
#96=DIRECTION('',(0.E0,0.E0,1.E0));
#97=DIRECTION('',(1.E0,0.E0,0.E0));
#98=AXIS2_PLACEMENT_3D('',#95,#96,#97);
#100=CARTESIAN_POINT('',(4.2E1,5.2E1,0.E0));
#101=DIRECTION('',(0.E0,0.E0,1.E0));
#102=DIRECTION('',(-1.E0,0.E0,0.E0));
#103=AXIS2_PLACEMENT_3D('',#100,#101,#102);
#105=CARTESIAN_POINT('',(3.E1,2.2E1,0.E0));
#106=DIRECTION('',(0.E0,0.E0,1.E0));
#107=DIRECTION('',(1.E0,0.E0,0.E0));
#108=AXIS2_PLACEMENT_3D('',#105,#106,#107);
#110=CARTESIAN_POINT('',(3.E1,2.2E1,0.E0));
#111=DIRECTION('',(0.E0,0.E0,1.E0));
#112=DIRECTION('',(-1.E0,0.E0,0.E0));
#113=AXIS2_PLACEMENT_3D('',#110,#111,#112);
#115=CARTESIAN_POINT('',(3.E1,5.2E1,0.E0));
#116=DIRECTION('',(0.E0,0.E0,1.E0));
#117=DIRECTION('',(1.E0,0.E0,0.E0));
#118=AXIS2_PLACEMENT_3D('',#115,#116,#117);
#120=CARTESIAN_POINT('',(3.E1,5.2E1,0.E0));
#121=DIRECTION('',(0.E0,0.E0,1.E0));
#122=DIRECTION('',(-1.E0,0.E0,0.E0));
#123=AXIS2_PLACEMENT_3D('',#120,#121,#122);
#125=CARTESIAN_POINT('',(2.2E1,3.6E1,0.E0));
#126=DIRECTION('',(0.E0,0.E0,1.E0));
#127=DIRECTION('',(1.E0,0.E0,0.E0));
#128=AXIS2_PLACEMENT_3D('',#125,#126,#127);
#130=CARTESIAN_POINT('',(2.2E1,3.6E1,0.E0));
#131=DIRECTION('',(0.E0,0.E0,1.E0));
#132=DIRECTION('',(-1.E0,0.E0,0.E0));
#133=AXIS2_PLACEMENT_3D('',#130,#131,#132);
#135=CARTESIAN_POINT('',(2.1E1,4.E0,0.E0));
#136=DIRECTION('',(0.E0,0.E0,-1.E0));
#137=DIRECTION('',(0.E0,-1.E0,0.E0));
#138=AXIS2_PLACEMENT_3D('',#135,#136,#137);
#140=CARTESIAN_POINT('',(2.1E1,4.E0,0.E0));
#141=DIRECTION('',(0.E0,0.E0,-1.E0));
#142=DIRECTION('',(0.E0,1.E0,0.E0));
#143=AXIS2_PLACEMENT_3D('',#140,#141,#142);
#145=CARTESIAN_POINT('',(5.1E1,5.4E1,0.E0));
#146=DIRECTION('',(0.E0,0.E0,-1.E0));
#147=DIRECTION('',(0.E0,-1.E0,0.E0));
#148=AXIS2_PLACEMENT_3D('',#145,#146,#147);
#150=CARTESIAN_POINT('',(5.1E1,5.4E1,0.E0));
#151=DIRECTION('',(0.E0,0.E0,-1.E0));
#152=DIRECTION('',(0.E0,1.E0,0.E0));
#153=AXIS2_PLACEMENT_3D('',#150,#151,#152);
#155=DIRECTION('',(0.E0,0.E0,1.E0));
#156=VECTOR('',#155,1.E1);
#157=CARTESIAN_POINT('',(1.2E1,6.E1,-1.E1));
#158=LINE('',#157,#156);
#159=DIRECTION('',(-1.E0,0.E0,0.E0));
#160=VECTOR('',#159,4.8E1);
#161=CARTESIAN_POINT('',(6.E1,-2.E0,-1.E1));
#162=LINE('',#161,#160);
#163=DIRECTION('',(0.E0,0.E0,1.E0));
#164=VECTOR('',#163,1.E1);
#165=CARTESIAN_POINT('',(1.2E1,-2.E0,-1.E1));
#166=LINE('',#165,#164);
#167=DIRECTION('',(1.E0,0.E0,0.E0));
#168=VECTOR('',#167,4.8E1);
#169=CARTESIAN_POINT('',(1.2E1,-2.E0,0.E0));
#170=LINE('',#169,#168);
#171=DIRECTION('',(0.E0,1.E0,0.E0));
#172=VECTOR('',#171,6.2E1);
#173=CARTESIAN_POINT('',(6.E1,-2.E0,0.E0));
#174=LINE('',#173,#172);
#175=DIRECTION('',(0.E0,-1.E0,0.E0));
#176=VECTOR('',#175,6.2E1);
#177=CARTESIAN_POINT('',(6.E1,6.E1,-1.E1));
#178=LINE('',#177,#176);
#179=DIRECTION('',(0.E0,0.E0,1.E0));
#180=VECTOR('',#179,1.E1);
#181=CARTESIAN_POINT('',(6.E1,-2.E0,-1.E1));
#182=LINE('',#181,#180);
#183=DIRECTION('',(0.E0,0.E0,1.E0));
#184=VECTOR('',#183,6.E1);
#185=CARTESIAN_POINT('',(2.75E1,4.322330470336E0,0.E0));
#186=LINE('',#185,#184);
#187=DIRECTION('',(0.E0,0.E0,1.E0));
#188=VECTOR('',#187,6.E1);
#189=CARTESIAN_POINT('',(3.25E1,4.322330470336E0,0.E0));
#190=LINE('',#189,#188);
#191=CARTESIAN_POINT('',(3.E1,4.322330470336E0,6.E1));
#192=DIRECTION('',(0.E0,0.E0,1.E0));
#193=DIRECTION('',(1.E0,0.E0,0.E0));
#194=AXIS2_PLACEMENT_3D('',#191,#192,#193);
#196=CARTESIAN_POINT('',(3.E1,4.322330470336E0,6.E1));
#197=DIRECTION('',(0.E0,0.E0,1.E0));
#198=DIRECTION('',(-1.E0,0.E0,0.E0));
#199=AXIS2_PLACEMENT_3D('',#196,#197,#198);
#201=DIRECTION('',(0.E0,0.E0,1.E0));
#202=VECTOR('',#201,6.E1);
#203=CARTESIAN_POINT('',(3.95E1,5.2E1,0.E0));
#204=LINE('',#203,#202);
#205=DIRECTION('',(0.E0,0.E0,1.E0));
#206=VECTOR('',#205,6.E1);
#207=CARTESIAN_POINT('',(4.45E1,5.2E1,0.E0));
#208=LINE('',#207,#206);
#209=CARTESIAN_POINT('',(4.2E1,5.2E1,6.E1));
#210=DIRECTION('',(0.E0,0.E0,1.E0));
#211=DIRECTION('',(1.E0,0.E0,0.E0));
#212=AXIS2_PLACEMENT_3D('',#209,#210,#211);
#214=CARTESIAN_POINT('',(4.2E1,5.2E1,6.E1));
#215=DIRECTION('',(0.E0,0.E0,1.E0));
#216=DIRECTION('',(-1.E0,0.E0,0.E0));
#217=AXIS2_PLACEMENT_3D('',#214,#215,#216);
#219=DIRECTION('',(0.E0,0.E0,1.E0));
#220=VECTOR('',#219,6.E1);
#221=CARTESIAN_POINT('',(2.75E1,2.2E1,0.E0));
#222=LINE('',#221,#220);
#223=DIRECTION('',(0.E0,0.E0,1.E0));
#224=VECTOR('',#223,6.E1);
#225=CARTESIAN_POINT('',(3.25E1,2.2E1,0.E0));
#226=LINE('',#225,#224);
#227=CARTESIAN_POINT('',(3.E1,2.2E1,6.E1));
#228=DIRECTION('',(0.E0,0.E0,1.E0));
#229=DIRECTION('',(1.E0,0.E0,0.E0));
#230=AXIS2_PLACEMENT_3D('',#227,#228,#229);
#232=CARTESIAN_POINT('',(3.E1,2.2E1,6.E1));
#233=DIRECTION('',(0.E0,0.E0,1.E0));
#234=DIRECTION('',(-1.E0,0.E0,0.E0));
#235=AXIS2_PLACEMENT_3D('',#232,#233,#234);
#237=DIRECTION('',(0.E0,0.E0,1.E0));
#238=VECTOR('',#237,6.E1);
#239=CARTESIAN_POINT('',(2.75E1,5.2E1,0.E0));
#240=LINE('',#239,#238);
#241=DIRECTION('',(0.E0,0.E0,1.E0));
#242=VECTOR('',#241,6.E1);
#243=CARTESIAN_POINT('',(3.25E1,5.2E1,0.E0));
#244=LINE('',#243,#242);
#245=CARTESIAN_POINT('',(3.E1,5.2E1,6.E1));
#246=DIRECTION('',(0.E0,0.E0,1.E0));
#247=DIRECTION('',(1.E0,0.E0,0.E0));
#248=AXIS2_PLACEMENT_3D('',#245,#246,#247);
#250=CARTESIAN_POINT('',(3.E1,5.2E1,6.E1));
#251=DIRECTION('',(0.E0,0.E0,1.E0));
#252=DIRECTION('',(-1.E0,0.E0,0.E0));
#253=AXIS2_PLACEMENT_3D('',#250,#251,#252);
#255=DIRECTION('',(0.E0,0.E0,1.E0));
#256=VECTOR('',#255,6.E1);
#257=CARTESIAN_POINT('',(1.95E1,3.6E1,0.E0));
#258=LINE('',#257,#256);
#259=DIRECTION('',(0.E0,0.E0,1.E0));
#260=VECTOR('',#259,6.E1);
#261=CARTESIAN_POINT('',(2.45E1,3.6E1,0.E0));
#262=LINE('',#261,#260);
#263=CARTESIAN_POINT('',(2.2E1,3.6E1,6.E1));
#264=DIRECTION('',(0.E0,0.E0,1.E0));
#265=DIRECTION('',(1.E0,0.E0,0.E0));
#266=AXIS2_PLACEMENT_3D('',#263,#264,#265);
#268=CARTESIAN_POINT('',(2.2E1,3.6E1,6.E1));
#269=DIRECTION('',(0.E0,0.E0,1.E0));
#270=DIRECTION('',(-1.E0,0.E0,0.E0));
#271=AXIS2_PLACEMENT_3D('',#268,#269,#270);
#273=CARTESIAN_POINT('',(5.1E1,5.4E1,-9.825E-1));
#274=DIRECTION('',(0.E0,0.E0,1.E0));
#275=DIRECTION('',(0.E0,1.E0,0.E0));
#276=AXIS2_PLACEMENT_3D('',#273,#274,#275);
#278=DIRECTION('',(0.E0,-7.071067811865E-1,7.071067811865E-1));
#279=VECTOR('',#278,1.389464825032E0);
#280=CARTESIAN_POINT('',(5.1E1,5.14825E1,-9.825E-1));
#281=LINE('',#280,#279);
#282=CARTESIAN_POINT('',(5.1E1,5.4E1,-9.825E-1));
#283=DIRECTION('',(0.E0,0.E0,1.E0));
#284=DIRECTION('',(0.E0,-1.E0,0.E0));
#285=AXIS2_PLACEMENT_3D('',#282,#283,#284);
#287=DIRECTION('',(0.E0,-7.071067811866E-1,-7.071067811865E-1));
#288=VECTOR('',#287,1.389464825032E0);
#289=CARTESIAN_POINT('',(5.1E1,5.75E1,0.E0));
#290=LINE('',#289,#288);
#291=DIRECTION('',(0.E0,0.E0,1.E0));
#292=VECTOR('',#291,8.035E0);
#293=CARTESIAN_POINT('',(5.1E1,5.65175E1,-9.0175E0));
#294=LINE('',#293,#292);
#295=DIRECTION('',(0.E0,0.E0,-1.E0));
#296=VECTOR('',#295,8.035E0);
#297=CARTESIAN_POINT('',(5.1E1,5.14825E1,-9.825E-1));
#298=LINE('',#297,#296);
#299=CARTESIAN_POINT('',(5.1E1,5.4E1,-9.0175E0));
#300=DIRECTION('',(0.E0,0.E0,-1.E0));
#301=DIRECTION('',(0.E0,-1.E0,0.E0));
#302=AXIS2_PLACEMENT_3D('',#299,#300,#301);
#304=DIRECTION('',(0.E0,-7.071067811866E-1,7.071067811865E-1));
#305=VECTOR('',#304,1.389464825032E0);
#306=CARTESIAN_POINT('',(5.1E1,5.75E1,-1.E1));
#307=LINE('',#306,#305);
#308=DIRECTION('',(0.E0,-7.071067811866E-1,-7.071067811865E-1));
#309=VECTOR('',#308,1.389464825032E0);
#310=CARTESIAN_POINT('',(5.1E1,5.14825E1,-9.0175E0));
#311=LINE('',#310,#309);
#312=CARTESIAN_POINT('',(5.1E1,5.4E1,-9.0175E0));
#313=DIRECTION('',(0.E0,0.E0,-1.E0));
#314=DIRECTION('',(0.E0,1.E0,0.E0));
#315=AXIS2_PLACEMENT_3D('',#312,#313,#314);
#317=CARTESIAN_POINT('',(3.25E1,4.322330470336E0,6.E1));
#318=CARTESIAN_POINT('',(2.75E1,4.322330470336E0,6.E1));
#319=VERTEX_POINT('',#317);
#320=VERTEX_POINT('',#318);
#321=CARTESIAN_POINT('',(4.45E1,5.2E1,6.E1));
#322=CARTESIAN_POINT('',(3.95E1,5.2E1,6.E1));
#323=VERTEX_POINT('',#321);
#324=VERTEX_POINT('',#322);
#325=CARTESIAN_POINT('',(3.25E1,2.2E1,6.E1));
#326=CARTESIAN_POINT('',(2.75E1,2.2E1,6.E1));
#327=VERTEX_POINT('',#325);
#328=VERTEX_POINT('',#326);
#329=CARTESIAN_POINT('',(3.25E1,5.2E1,6.E1));
#330=CARTESIAN_POINT('',(2.75E1,5.2E1,6.E1));
#331=VERTEX_POINT('',#329);
#332=VERTEX_POINT('',#330);
#333=CARTESIAN_POINT('',(2.45E1,3.6E1,6.E1));
#334=CARTESIAN_POINT('',(1.95E1,3.6E1,6.E1));
#335=VERTEX_POINT('',#333);
#336=VERTEX_POINT('',#334);
#337=CARTESIAN_POINT('',(2.1E1,1.4825E0,-9.0175E0));
#338=CARTESIAN_POINT('',(2.1E1,5.E-1,-1.E1));
#339=VERTEX_POINT('',#337);
#340=VERTEX_POINT('',#338);
#341=CARTESIAN_POINT('',(2.1E1,7.5E0,-1.E1));
#342=VERTEX_POINT('',#341);
#343=CARTESIAN_POINT('',(2.1E1,6.5175E0,-9.0175E0));
#344=VERTEX_POINT('',#343);
#345=CARTESIAN_POINT('',(2.1E1,1.4825E0,-9.825E-1));
#346=VERTEX_POINT('',#345);
#347=CARTESIAN_POINT('',(2.1E1,6.5175E0,-9.825E-1));
#348=VERTEX_POINT('',#347);
#349=CARTESIAN_POINT('',(5.1E1,5.14825E1,-9.0175E0));
#350=CARTESIAN_POINT('',(5.1E1,5.05E1,-1.E1));
#351=VERTEX_POINT('',#349);
#352=VERTEX_POINT('',#350);
#353=CARTESIAN_POINT('',(5.1E1,5.75E1,-1.E1));
#354=VERTEX_POINT('',#353);
#355=CARTESIAN_POINT('',(5.1E1,5.65175E1,-9.0175E0));
#356=VERTEX_POINT('',#355);
#357=CARTESIAN_POINT('',(5.1E1,5.14825E1,-9.825E-1));
#358=VERTEX_POINT('',#357);
#359=CARTESIAN_POINT('',(5.1E1,5.65175E1,-9.825E-1));
#360=VERTEX_POINT('',#359);
#361=CARTESIAN_POINT('',(2.1E1,5.E-1,0.E0));
#362=VERTEX_POINT('',#361);
#363=CARTESIAN_POINT('',(2.1E1,7.5E0,0.E0));
#364=VERTEX_POINT('',#363);
#365=CARTESIAN_POINT('',(5.1E1,5.05E1,0.E0));
#366=VERTEX_POINT('',#365);
#367=CARTESIAN_POINT('',(5.1E1,5.75E1,0.E0));
#368=VERTEX_POINT('',#367);
#369=CARTESIAN_POINT('',(3.25E1,4.322330470336E0,0.E0));
#370=VERTEX_POINT('',#369);
#371=CARTESIAN_POINT('',(2.75E1,4.322330470336E0,0.E0));
#372=VERTEX_POINT('',#371);
#373=CARTESIAN_POINT('',(4.45E1,5.2E1,0.E0));
#374=VERTEX_POINT('',#373);
#375=CARTESIAN_POINT('',(3.95E1,5.2E1,0.E0));
#376=VERTEX_POINT('',#375);
#377=CARTESIAN_POINT('',(3.25E1,2.2E1,0.E0));
#378=VERTEX_POINT('',#377);
#379=CARTESIAN_POINT('',(2.75E1,2.2E1,0.E0));
#380=VERTEX_POINT('',#379);
#381=CARTESIAN_POINT('',(3.25E1,5.2E1,0.E0));
#382=VERTEX_POINT('',#381);
#383=CARTESIAN_POINT('',(2.75E1,5.2E1,0.E0));
#384=VERTEX_POINT('',#383);
#385=CARTESIAN_POINT('',(2.45E1,3.6E1,0.E0));
#386=VERTEX_POINT('',#385);
#387=CARTESIAN_POINT('',(1.95E1,3.6E1,0.E0));
#388=VERTEX_POINT('',#387);
#389=CARTESIAN_POINT('',(1.2E1,6.E1,-1.E1));
#390=CARTESIAN_POINT('',(1.2E1,6.E1,0.E0));
#391=VERTEX_POINT('',#389);
#392=VERTEX_POINT('',#390);
#393=CARTESIAN_POINT('',(1.2E1,-2.E0,-1.E1));
#394=CARTESIAN_POINT('',(1.2E1,-2.E0,0.E0));
#395=VERTEX_POINT('',#393);
#396=VERTEX_POINT('',#394);
#397=CARTESIAN_POINT('',(6.E1,6.E1,-1.E1));
#398=CARTESIAN_POINT('',(6.E1,6.E1,0.E0));
#399=VERTEX_POINT('',#397);
#400=VERTEX_POINT('',#398);
#401=CARTESIAN_POINT('',(6.E1,-2.E0,-1.E1));
#402=CARTESIAN_POINT('',(6.E1,-2.E0,0.E0));
#403=VERTEX_POINT('',#401);
#404=VERTEX_POINT('',#402);
#405=CARTESIAN_POINT('',(2.1E1,4.E0,-9.50875E0));
#406=DIRECTION('',(0.E0,0.E0,-1.E0));
#407=DIRECTION('',(0.E0,-1.E0,0.E0));
#408=AXIS2_PLACEMENT_3D('',#405,#406,#407);
#409=CONICAL_SURFACE('',#408,3.00875E0,4.5E1);
#411=ORIENTED_EDGE('',*,*,#410,.T.);
#413=ORIENTED_EDGE('',*,*,#412,.F.);
#415=ORIENTED_EDGE('',*,*,#414,.T.);
#417=ORIENTED_EDGE('',*,*,#416,.F.);
#418=EDGE_LOOP('',(#411,#413,#415,#417));
#419=FACE_OUTER_BOUND('',#418,.F.);
#420=ADVANCED_FACE('',(#419),#409,.F.);
#421=CARTESIAN_POINT('',(2.1E1,4.E0,0.E0));
#422=DIRECTION('',(0.E0,0.E0,-1.E0));
#423=DIRECTION('',(0.E0,-1.E0,0.E0));
#424=AXIS2_PLACEMENT_3D('',#421,#422,#423);
#425=CYLINDRICAL_SURFACE('',#424,2.5175E0);
#427=ORIENTED_EDGE('',*,*,#426,.F.);
#429=ORIENTED_EDGE('',*,*,#428,.F.);
#430=ORIENTED_EDGE('',*,*,#410,.F.);
#432=ORIENTED_EDGE('',*,*,#431,.F.);
#433=EDGE_LOOP('',(#427,#429,#430,#432));
#434=FACE_OUTER_BOUND('',#433,.F.);
#435=ADVANCED_FACE('',(#434),#425,.F.);
#436=CARTESIAN_POINT('',(2.1E1,4.E0,-4.9125E-1));
#437=DIRECTION('',(0.E0,0.E0,1.E0));
#438=DIRECTION('',(0.E0,-1.E0,0.E0));
#439=AXIS2_PLACEMENT_3D('',#436,#437,#438);
#440=CONICAL_SURFACE('',#439,3.00875E0,4.5E1);
#442=ORIENTED_EDGE('',*,*,#441,.T.);
#444=ORIENTED_EDGE('',*,*,#443,.T.);
#446=ORIENTED_EDGE('',*,*,#445,.T.);
#447=ORIENTED_EDGE('',*,*,#426,.T.);
#448=EDGE_LOOP('',(#442,#444,#446,#447));
#449=FACE_OUTER_BOUND('',#448,.F.);
#450=ADVANCED_FACE('',(#449),#440,.F.);
#451=CARTESIAN_POINT('',(2.1E1,4.E0,-4.9125E-1));
#452=DIRECTION('',(0.E0,0.E0,1.E0));
#453=DIRECTION('',(0.E0,-1.E0,0.E0));
#454=AXIS2_PLACEMENT_3D('',#451,#452,#453);
#455=CONICAL_SURFACE('',#454,3.00875E0,4.5E1);
#456=ORIENTED_EDGE('',*,*,#441,.F.);
#458=ORIENTED_EDGE('',*,*,#457,.T.);
#459=ORIENTED_EDGE('',*,*,#445,.F.);
#461=ORIENTED_EDGE('',*,*,#460,.T.);
#462=EDGE_LOOP('',(#456,#458,#459,#461));
#463=FACE_OUTER_BOUND('',#462,.F.);
#464=ADVANCED_FACE('',(#463),#455,.F.);
#465=CARTESIAN_POINT('',(2.1E1,4.E0,0.E0));
#466=DIRECTION('',(0.E0,0.E0,-1.E0));
#467=DIRECTION('',(0.E0,-1.E0,0.E0));
#468=AXIS2_PLACEMENT_3D('',#465,#466,#467);
#469=CYLINDRICAL_SURFACE('',#468,2.5175E0);
#470=ORIENTED_EDGE('',*,*,#457,.F.);
#471=ORIENTED_EDGE('',*,*,#431,.T.);
#473=ORIENTED_EDGE('',*,*,#472,.F.);
#474=ORIENTED_EDGE('',*,*,#428,.T.);
#475=EDGE_LOOP('',(#470,#471,#473,#474));
#476=FACE_OUTER_BOUND('',#475,.F.);
#477=ADVANCED_FACE('',(#476),#469,.F.);
#478=CARTESIAN_POINT('',(2.1E1,4.E0,-9.50875E0));
#479=DIRECTION('',(0.E0,0.E0,-1.E0));
#480=DIRECTION('',(0.E0,-1.E0,0.E0));
#481=AXIS2_PLACEMENT_3D('',#478,#479,#480);
#482=CONICAL_SURFACE('',#481,3.00875E0,4.5E1);
#483=ORIENTED_EDGE('',*,*,#472,.T.);
#484=ORIENTED_EDGE('',*,*,#416,.T.);
#486=ORIENTED_EDGE('',*,*,#485,.T.);
#487=ORIENTED_EDGE('',*,*,#412,.T.);
#488=EDGE_LOOP('',(#483,#484,#486,#487));
#489=FACE_OUTER_BOUND('',#488,.F.);
#490=ADVANCED_FACE('',(#489),#482,.F.);
#491=CARTESIAN_POINT('',(3.6E1,2.9E1,-1.E1));
#492=DIRECTION('',(0.E0,0.E0,1.E0));
#493=DIRECTION('',(0.E0,-1.E0,0.E0));
#494=AXIS2_PLACEMENT_3D('',#491,#492,#493);
#495=PLANE('',#494);
#497=ORIENTED_EDGE('',*,*,#496,.F.);
#499=ORIENTED_EDGE('',*,*,#498,.T.);
#501=ORIENTED_EDGE('',*,*,#500,.F.);
#503=ORIENTED_EDGE('',*,*,#502,.F.);
#504=EDGE_LOOP('',(#497,#499,#501,#503));
#505=FACE_OUTER_BOUND('',#504,.F.);
#507=ORIENTED_EDGE('',*,*,#506,.F.);
#509=ORIENTED_EDGE('',*,*,#508,.F.);
#510=EDGE_LOOP('',(#507,#509));
#511=FACE_BOUND('',#510,.F.);
#512=ORIENTED_EDGE('',*,*,#485,.F.);
#513=ORIENTED_EDGE('',*,*,#414,.F.);
#514=EDGE_LOOP('',(#512,#513));
#515=FACE_BOUND('',#514,.F.);
#516=ADVANCED_FACE('',(#505,#511,#515),#495,.F.);
#517=CARTESIAN_POINT('',(1.2E1,6.E1,0.E0));
#518=DIRECTION('',(0.E0,1.E0,0.E0));
#519=DIRECTION('',(1.E0,0.E0,0.E0));
#520=AXIS2_PLACEMENT_3D('',#517,#518,#519);
#521=PLANE('',#520);
#523=ORIENTED_EDGE('',*,*,#522,.F.);
#525=ORIENTED_EDGE('',*,*,#524,.F.);
#526=ORIENTED_EDGE('',*,*,#496,.T.);
#528=ORIENTED_EDGE('',*,*,#527,.T.);
#529=EDGE_LOOP('',(#523,#525,#526,#528));
#530=FACE_OUTER_BOUND('',#529,.F.);
#531=ADVANCED_FACE('',(#530),#521,.T.);
#532=CARTESIAN_POINT('',(3.6E1,2.9E1,0.E0));
#533=DIRECTION('',(0.E0,0.E0,1.E0));
#534=DIRECTION('',(0.E0,-1.E0,0.E0));
#535=AXIS2_PLACEMENT_3D('',#532,#533,#534);
#536=PLANE('',#535);
#538=ORIENTED_EDGE('',*,*,#537,.T.);
#539=ORIENTED_EDGE('',*,*,#522,.T.);
#541=ORIENTED_EDGE('',*,*,#540,.F.);
#543=ORIENTED_EDGE('',*,*,#542,.F.);
#544=EDGE_LOOP('',(#538,#539,#541,#543));
#545=FACE_OUTER_BOUND('',#544,.F.);
#547=ORIENTED_EDGE('',*,*,#546,.T.);
#549=ORIENTED_EDGE('',*,*,#548,.T.);
#550=EDGE_LOOP('',(#547,#549));
#551=FACE_BOUND('',#550,.F.);
#553=ORIENTED_EDGE('',*,*,#552,.T.);
#555=ORIENTED_EDGE('',*,*,#554,.T.);
#556=EDGE_LOOP('',(#553,#555));
#557=FACE_BOUND('',#556,.F.);
#559=ORIENTED_EDGE('',*,*,#558,.T.);
#561=ORIENTED_EDGE('',*,*,#560,.T.);
#562=EDGE_LOOP('',(#559,#561));
#563=FACE_BOUND('',#562,.F.);
#565=ORIENTED_EDGE('',*,*,#564,.T.);
#567=ORIENTED_EDGE('',*,*,#566,.T.);
#568=EDGE_LOOP('',(#565,#567));
#569=FACE_BOUND('',#568,.F.);
#571=ORIENTED_EDGE('',*,*,#570,.T.);
#573=ORIENTED_EDGE('',*,*,#572,.T.);
#574=EDGE_LOOP('',(#571,#573));
#575=FACE_BOUND('',#574,.F.);
#576=ORIENTED_EDGE('',*,*,#443,.F.);
#577=ORIENTED_EDGE('',*,*,#460,.F.);
#578=EDGE_LOOP('',(#576,#577));
#579=FACE_BOUND('',#578,.F.);
#581=ORIENTED_EDGE('',*,*,#580,.F.);
#583=ORIENTED_EDGE('',*,*,#582,.F.);
#584=EDGE_LOOP('',(#581,#583));
#585=FACE_BOUND('',#584,.F.);
#586=ADVANCED_FACE('',(#545,#551,#557,#563,#569,#575,#579,#585),#536,.T.);
#587=CARTESIAN_POINT('',(1.2E1,-2.E0,0.E0));
#588=DIRECTION('',(-1.E0,0.E0,0.E0));
#589=DIRECTION('',(0.E0,1.E0,0.E0));
#590=AXIS2_PLACEMENT_3D('',#587,#588,#589);
#591=PLANE('',#590);
#592=ORIENTED_EDGE('',*,*,#498,.F.);
#593=ORIENTED_EDGE('',*,*,#524,.T.);
#594=ORIENTED_EDGE('',*,*,#537,.F.);
#596=ORIENTED_EDGE('',*,*,#595,.F.);
#597=EDGE_LOOP('',(#592,#593,#594,#596));
#598=FACE_OUTER_BOUND('',#597,.F.);
#599=ADVANCED_FACE('',(#598),#591,.T.);
#600=CARTESIAN_POINT('',(6.E1,-2.E0,0.E0));
#601=DIRECTION('',(0.E0,-1.E0,0.E0));
#602=DIRECTION('',(-1.E0,0.E0,0.E0));
#603=AXIS2_PLACEMENT_3D('',#600,#601,#602);
#604=PLANE('',#603);
#605=ORIENTED_EDGE('',*,*,#500,.T.);
#606=ORIENTED_EDGE('',*,*,#595,.T.);
#607=ORIENTED_EDGE('',*,*,#542,.T.);
#609=ORIENTED_EDGE('',*,*,#608,.F.);
#610=EDGE_LOOP('',(#605,#606,#607,#609));
#611=FACE_OUTER_BOUND('',#610,.F.);
#612=ADVANCED_FACE('',(#611),#604,.T.);
#613=CARTESIAN_POINT('',(6.E1,6.E1,0.E0));
#614=DIRECTION('',(1.E0,0.E0,0.E0));
#615=DIRECTION('',(0.E0,-1.E0,0.E0));
#616=AXIS2_PLACEMENT_3D('',#613,#614,#615);
#617=PLANE('',#616);
#618=ORIENTED_EDGE('',*,*,#540,.T.);
#619=ORIENTED_EDGE('',*,*,#527,.F.);
#620=ORIENTED_EDGE('',*,*,#502,.T.);
#621=ORIENTED_EDGE('',*,*,#608,.T.);
#622=EDGE_LOOP('',(#618,#619,#620,#621));
#623=FACE_OUTER_BOUND('',#622,.F.);
#624=ADVANCED_FACE('',(#623),#617,.T.);
#625=CARTESIAN_POINT('',(3.E1,4.322330470336E0,0.E0));
#626=DIRECTION('',(0.E0,0.E0,1.E0));
#627=DIRECTION('',(-1.E0,0.E0,0.E0));
#628=AXIS2_PLACEMENT_3D('',#625,#626,#627);
#629=CYLINDRICAL_SURFACE('',#628,2.5E0);
#630=ORIENTED_EDGE('',*,*,#546,.F.);
#632=ORIENTED_EDGE('',*,*,#631,.T.);
#634=ORIENTED_EDGE('',*,*,#633,.T.);
#636=ORIENTED_EDGE('',*,*,#635,.F.);
#637=EDGE_LOOP('',(#630,#632,#634,#636));
#638=FACE_OUTER_BOUND('',#637,.F.);
#639=ADVANCED_FACE('',(#638),#629,.T.);
#640=CARTESIAN_POINT('',(3.E1,4.322330470336E0,0.E0));
#641=DIRECTION('',(0.E0,0.E0,1.E0));
#642=DIRECTION('',(-1.E0,0.E0,0.E0));
#643=AXIS2_PLACEMENT_3D('',#640,#641,#642);
#644=CYLINDRICAL_SURFACE('',#643,2.5E0);
#645=ORIENTED_EDGE('',*,*,#548,.F.);
#646=ORIENTED_EDGE('',*,*,#635,.T.);
#648=ORIENTED_EDGE('',*,*,#647,.T.);
#649=ORIENTED_EDGE('',*,*,#631,.F.);
#650=EDGE_LOOP('',(#645,#646,#648,#649));
#651=FACE_OUTER_BOUND('',#650,.F.);
#652=ADVANCED_FACE('',(#651),#644,.T.);
#653=CARTESIAN_POINT('',(3.E1,4.322330470336E0,6.E1));
#654=DIRECTION('',(0.E0,0.E0,1.E0));
#655=DIRECTION('',(-1.E0,0.E0,0.E0));
#656=AXIS2_PLACEMENT_3D('',#653,#654,#655);
#657=PLANE('',#656);
#658=ORIENTED_EDGE('',*,*,#633,.F.);
#659=ORIENTED_EDGE('',*,*,#647,.F.);
#660=EDGE_LOOP('',(#658,#659));
#661=FACE_OUTER_BOUND('',#660,.F.);
#662=ADVANCED_FACE('',(#661),#657,.T.);
#663=CARTESIAN_POINT('',(4.2E1,5.2E1,0.E0));
#664=DIRECTION('',(0.E0,0.E0,1.E0));
#665=DIRECTION('',(-1.E0,0.E0,0.E0));
#666=AXIS2_PLACEMENT_3D('',#663,#664,#665);
#667=CYLINDRICAL_SURFACE('',#666,2.5E0);
#668=ORIENTED_EDGE('',*,*,#552,.F.);
#670=ORIENTED_EDGE('',*,*,#669,.T.);
#672=ORIENTED_EDGE('',*,*,#671,.T.);
#674=ORIENTED_EDGE('',*,*,#673,.F.);
#675=EDGE_LOOP('',(#668,#670,#672,#674));
#676=FACE_OUTER_BOUND('',#675,.F.);
#677=ADVANCED_FACE('',(#676),#667,.T.);
#678=CARTESIAN_POINT('',(4.2E1,5.2E1,0.E0));
#679=DIRECTION('',(0.E0,0.E0,1.E0));
#680=DIRECTION('',(-1.E0,0.E0,0.E0));
#681=AXIS2_PLACEMENT_3D('',#678,#679,#680);
#682=CYLINDRICAL_SURFACE('',#681,2.5E0);
#683=ORIENTED_EDGE('',*,*,#554,.F.);
#684=ORIENTED_EDGE('',*,*,#673,.T.);
#686=ORIENTED_EDGE('',*,*,#685,.T.);
#687=ORIENTED_EDGE('',*,*,#669,.F.);
#688=EDGE_LOOP('',(#683,#684,#686,#687));
#689=FACE_OUTER_BOUND('',#688,.F.);
#690=ADVANCED_FACE('',(#689),#682,.T.);
#691=CARTESIAN_POINT('',(4.2E1,5.2E1,6.E1));
#692=DIRECTION('',(0.E0,0.E0,1.E0));
#693=DIRECTION('',(-1.E0,0.E0,0.E0));
#694=AXIS2_PLACEMENT_3D('',#691,#692,#693);
#695=PLANE('',#694);
#696=ORIENTED_EDGE('',*,*,#671,.F.);
#697=ORIENTED_EDGE('',*,*,#685,.F.);
#698=EDGE_LOOP('',(#696,#697));
#699=FACE_OUTER_BOUND('',#698,.F.);
#700=ADVANCED_FACE('',(#699),#695,.T.);
#701=CARTESIAN_POINT('',(3.E1,2.2E1,0.E0));
#702=DIRECTION('',(0.E0,0.E0,1.E0));
#703=DIRECTION('',(-1.E0,0.E0,0.E0));
#704=AXIS2_PLACEMENT_3D('',#701,#702,#703);
#705=CYLINDRICAL_SURFACE('',#704,2.5E0);
#706=ORIENTED_EDGE('',*,*,#558,.F.);
#708=ORIENTED_EDGE('',*,*,#707,.T.);
#710=ORIENTED_EDGE('',*,*,#709,.T.);
#712=ORIENTED_EDGE('',*,*,#711,.F.);
#713=EDGE_LOOP('',(#706,#708,#710,#712));
#714=FACE_OUTER_BOUND('',#713,.F.);
#715=ADVANCED_FACE('',(#714),#705,.T.);
#716=CARTESIAN_POINT('',(3.E1,2.2E1,0.E0));
#717=DIRECTION('',(0.E0,0.E0,1.E0));
#718=DIRECTION('',(-1.E0,0.E0,0.E0));
#719=AXIS2_PLACEMENT_3D('',#716,#717,#718);
#720=CYLINDRICAL_SURFACE('',#719,2.5E0);
#721=ORIENTED_EDGE('',*,*,#560,.F.);
#722=ORIENTED_EDGE('',*,*,#711,.T.);
#724=ORIENTED_EDGE('',*,*,#723,.T.);
#725=ORIENTED_EDGE('',*,*,#707,.F.);
#726=EDGE_LOOP('',(#721,#722,#724,#725));
#727=FACE_OUTER_BOUND('',#726,.F.);
#728=ADVANCED_FACE('',(#727),#720,.T.);
#729=CARTESIAN_POINT('',(3.E1,2.2E1,6.E1));
#730=DIRECTION('',(0.E0,0.E0,1.E0));
#731=DIRECTION('',(-1.E0,0.E0,0.E0));
#732=AXIS2_PLACEMENT_3D('',#729,#730,#731);
#733=PLANE('',#732);
#734=ORIENTED_EDGE('',*,*,#709,.F.);
#735=ORIENTED_EDGE('',*,*,#723,.F.);
#736=EDGE_LOOP('',(#734,#735));
#737=FACE_OUTER_BOUND('',#736,.F.);
#738=ADVANCED_FACE('',(#737),#733,.T.);
#739=CARTESIAN_POINT('',(3.E1,5.2E1,0.E0));
#740=DIRECTION('',(0.E0,0.E0,1.E0));
#741=DIRECTION('',(-1.E0,0.E0,0.E0));
#742=AXIS2_PLACEMENT_3D('',#739,#740,#741);
#743=CYLINDRICAL_SURFACE('',#742,2.5E0);
#744=ORIENTED_EDGE('',*,*,#564,.F.);
#746=ORIENTED_EDGE('',*,*,#745,.T.);
#748=ORIENTED_EDGE('',*,*,#747,.T.);
#750=ORIENTED_EDGE('',*,*,#749,.F.);
#751=EDGE_LOOP('',(#744,#746,#748,#750));
#752=FACE_OUTER_BOUND('',#751,.F.);
#753=ADVANCED_FACE('',(#752),#743,.T.);
#754=CARTESIAN_POINT('',(3.E1,5.2E1,0.E0));
#755=DIRECTION('',(0.E0,0.E0,1.E0));
#756=DIRECTION('',(-1.E0,0.E0,0.E0));
#757=AXIS2_PLACEMENT_3D('',#754,#755,#756);
#758=CYLINDRICAL_SURFACE('',#757,2.5E0);
#759=ORIENTED_EDGE('',*,*,#566,.F.);
#760=ORIENTED_EDGE('',*,*,#749,.T.);
#762=ORIENTED_EDGE('',*,*,#761,.T.);
#763=ORIENTED_EDGE('',*,*,#745,.F.);
#764=EDGE_LOOP('',(#759,#760,#762,#763));
#765=FACE_OUTER_BOUND('',#764,.F.);
#766=ADVANCED_FACE('',(#765),#758,.T.);
#767=CARTESIAN_POINT('',(3.E1,5.2E1,6.E1));
#768=DIRECTION('',(0.E0,0.E0,1.E0));
#769=DIRECTION('',(-1.E0,0.E0,0.E0));
#770=AXIS2_PLACEMENT_3D('',#767,#768,#769);
#771=PLANE('',#770);
#772=ORIENTED_EDGE('',*,*,#747,.F.);
#773=ORIENTED_EDGE('',*,*,#761,.F.);
#774=EDGE_LOOP('',(#772,#773));
#775=FACE_OUTER_BOUND('',#774,.F.);
#776=ADVANCED_FACE('',(#775),#771,.T.);
#777=CARTESIAN_POINT('',(2.2E1,3.6E1,0.E0));
#778=DIRECTION('',(0.E0,0.E0,1.E0));
#779=DIRECTION('',(-1.E0,0.E0,0.E0));
#780=AXIS2_PLACEMENT_3D('',#777,#778,#779);
#781=CYLINDRICAL_SURFACE('',#780,2.5E0);
#782=ORIENTED_EDGE('',*,*,#570,.F.);
#784=ORIENTED_EDGE('',*,*,#783,.T.);
#786=ORIENTED_EDGE('',*,*,#785,.T.);
#788=ORIENTED_EDGE('',*,*,#787,.F.);
#789=EDGE_LOOP('',(#782,#784,#786,#788));
#790=FACE_OUTER_BOUND('',#789,.F.);
#791=ADVANCED_FACE('',(#790),#781,.T.);
#792=CARTESIAN_POINT('',(2.2E1,3.6E1,0.E0));
#793=DIRECTION('',(0.E0,0.E0,1.E0));
#794=DIRECTION('',(-1.E0,0.E0,0.E0));
#795=AXIS2_PLACEMENT_3D('',#792,#793,#794);
#796=CYLINDRICAL_SURFACE('',#795,2.5E0);
#797=ORIENTED_EDGE('',*,*,#572,.F.);
#798=ORIENTED_EDGE('',*,*,#787,.T.);
#800=ORIENTED_EDGE('',*,*,#799,.T.);
#801=ORIENTED_EDGE('',*,*,#783,.F.);
#802=EDGE_LOOP('',(#797,#798,#800,#801));
#803=FACE_OUTER_BOUND('',#802,.F.);
#804=ADVANCED_FACE('',(#803),#796,.T.);
#805=CARTESIAN_POINT('',(2.2E1,3.6E1,6.E1));
#806=DIRECTION('',(0.E0,0.E0,1.E0));
#807=DIRECTION('',(-1.E0,0.E0,0.E0));
#808=AXIS2_PLACEMENT_3D('',#805,#806,#807);
#809=PLANE('',#808);
#810=ORIENTED_EDGE('',*,*,#785,.F.);
#811=ORIENTED_EDGE('',*,*,#799,.F.);
#812=EDGE_LOOP('',(#810,#811));
#813=FACE_OUTER_BOUND('',#812,.F.);
#814=ADVANCED_FACE('',(#813),#809,.T.);
#815=CARTESIAN_POINT('',(5.1E1,5.4E1,-4.9125E-1));
#816=DIRECTION('',(0.E0,0.E0,1.E0));
#817=DIRECTION('',(0.E0,-1.E0,0.E0));
#818=AXIS2_PLACEMENT_3D('',#815,#816,#817);
#819=CONICAL_SURFACE('',#818,3.00875E0,4.5E1);
#821=ORIENTED_EDGE('',*,*,#820,.T.);
#822=ORIENTED_EDGE('',*,*,#580,.T.);
#824=ORIENTED_EDGE('',*,*,#823,.T.);
#826=ORIENTED_EDGE('',*,*,#825,.T.);
#827=EDGE_LOOP('',(#821,#822,#824,#826));
#828=FACE_OUTER_BOUND('',#827,.F.);
#829=ADVANCED_FACE('',(#828),#819,.F.);
#830=CARTESIAN_POINT('',(5.1E1,5.4E1,-4.9125E-1));
#831=DIRECTION('',(0.E0,0.E0,1.E0));
#832=DIRECTION('',(0.E0,-1.E0,0.E0));
#833=AXIS2_PLACEMENT_3D('',#830,#831,#832);
#834=CONICAL_SURFACE('',#833,3.00875E0,4.5E1);
#835=ORIENTED_EDGE('',*,*,#820,.F.);
#837=ORIENTED_EDGE('',*,*,#836,.T.);
#838=ORIENTED_EDGE('',*,*,#823,.F.);
#839=ORIENTED_EDGE('',*,*,#582,.T.);
#840=EDGE_LOOP('',(#835,#837,#838,#839));
#841=FACE_OUTER_BOUND('',#840,.F.);
#842=ADVANCED_FACE('',(#841),#834,.F.);
#843=CARTESIAN_POINT('',(5.1E1,5.4E1,0.E0));
#844=DIRECTION('',(0.E0,0.E0,-1.E0));
#845=DIRECTION('',(0.E0,-1.E0,0.E0));
#846=AXIS2_PLACEMENT_3D('',#843,#844,#845);
#847=CYLINDRICAL_SURFACE('',#846,2.5175E0);
#848=ORIENTED_EDGE('',*,*,#836,.F.);
#850=ORIENTED_EDGE('',*,*,#849,.T.);
#852=ORIENTED_EDGE('',*,*,#851,.F.);
#854=ORIENTED_EDGE('',*,*,#853,.T.);
#855=EDGE_LOOP('',(#848,#850,#852,#854));
#856=FACE_OUTER_BOUND('',#855,.F.);
#857=ADVANCED_FACE('',(#856),#847,.F.);
#858=CARTESIAN_POINT('',(5.1E1,5.4E1,0.E0));
#859=DIRECTION('',(0.E0,0.E0,-1.E0));
#860=DIRECTION('',(0.E0,-1.E0,0.E0));
#861=AXIS2_PLACEMENT_3D('',#858,#859,#860);
#862=CYLINDRICAL_SURFACE('',#861,2.5175E0);
#863=ORIENTED_EDGE('',*,*,#825,.F.);
#864=ORIENTED_EDGE('',*,*,#853,.F.);
#866=ORIENTED_EDGE('',*,*,#865,.F.);
#867=ORIENTED_EDGE('',*,*,#849,.F.);
#868=EDGE_LOOP('',(#863,#864,#866,#867));
#869=FACE_OUTER_BOUND('',#868,.F.);
#870=ADVANCED_FACE('',(#869),#862,.F.);
#871=CARTESIAN_POINT('',(5.1E1,5.4E1,-9.50875E0));
#872=DIRECTION('',(0.E0,0.E0,-1.E0));
#873=DIRECTION('',(0.E0,-1.E0,0.E0));
#874=AXIS2_PLACEMENT_3D('',#871,#872,#873);
#875=CONICAL_SURFACE('',#874,3.00875E0,4.5E1);
#876=ORIENTED_EDGE('',*,*,#865,.T.);
#878=ORIENTED_EDGE('',*,*,#877,.F.);
#879=ORIENTED_EDGE('',*,*,#508,.T.);
#881=ORIENTED_EDGE('',*,*,#880,.F.);
#882=EDGE_LOOP('',(#876,#878,#879,#881));
#883=FACE_OUTER_BOUND('',#882,.F.);
#884=ADVANCED_FACE('',(#883),#875,.F.);
#885=CARTESIAN_POINT('',(5.1E1,5.4E1,-9.50875E0));
#886=DIRECTION('',(0.E0,0.E0,-1.E0));
#887=DIRECTION('',(0.E0,-1.E0,0.E0));
#888=AXIS2_PLACEMENT_3D('',#885,#886,#887);
#889=CONICAL_SURFACE('',#888,3.00875E0,4.5E1);
#890=ORIENTED_EDGE('',*,*,#851,.T.);
#891=ORIENTED_EDGE('',*,*,#880,.T.);
#892=ORIENTED_EDGE('',*,*,#506,.T.);
#893=ORIENTED_EDGE('',*,*,#877,.T.);
#894=EDGE_LOOP('',(#890,#891,#892,#893));
#895=FACE_OUTER_BOUND('',#894,.F.);
#896=ADVANCED_FACE('',(#895),#889,.F.);
#898=CARTESIAN_POINT('',(4.2E1,5.2E1,-6.E0));
#899=DIRECTION('',(0.E0,0.E0,-1.E0));
#900=DIRECTION('',(0.E0,1.E0,0.E0));
#901=AXIS2_PLACEMENT_3D('',#898,#899,#900);
#903=CARTESIAN_POINT('',(4.2E1,5.2E1,-6.E0));
#904=DIRECTION('',(0.E0,0.E0,-1.E0));
#905=DIRECTION('',(0.E0,-1.E0,0.E0));
#906=AXIS2_PLACEMENT_3D('',#903,#904,#905);
#908=DIRECTION('',(0.E0,-8.571673007021E-1,5.150380749101E-1));
#909=VECTOR('',#908,2.916583493038E0);
#910=CARTESIAN_POINT('',(4.2E1,5.2E1,-7.502151547569E0));
#911=LINE('',#910,#909);
#912=DIRECTION('',(0.E0,8.571673007021E-1,5.150380749101E-1));
#913=VECTOR('',#912,2.916583493038E0);
#914=CARTESIAN_POINT('',(4.2E1,5.2E1,-7.502151547569E0));
#915=LINE('',#914,#913);
#916=CARTESIAN_POINT('',(4.2E1,5.2E1,-7.502151547569E0));
#917=CARTESIAN_POINT('',(4.2E1,4.95E1,-6.E0));
#918=VERTEX_POINT('',#916);
#919=VERTEX_POINT('',#917);
#920=CARTESIAN_POINT('',(4.2E1,5.45E1,-6.E0));
#921=VERTEX_POINT('',#920);
#922=CARTESIAN_POINT('',(4.2E1,5.2E1,-6.E0));
#923=DIRECTION('',(0.E0,0.E0,1.E0));
#924=DIRECTION('',(-1.E0,0.E0,0.E0));
#925=AXIS2_PLACEMENT_3D('',#922,#923,#924);
#926=PLANE('',#925);
#928=ORIENTED_EDGE('',*,*,#927,.T.);
#930=ORIENTED_EDGE('',*,*,#929,.T.);
#931=EDGE_LOOP('',(#928,#930));
#932=FACE_OUTER_BOUND('',#931,.F.);
#933=ADVANCED_FACE('',(#932),#926,.T.);
#934=CARTESIAN_POINT('',(4.2E1,5.2E1,-6.718594547339E0));
#935=DIRECTION('',(0.E0,0.E0,1.E0));
#936=DIRECTION('',(0.E0,-1.E0,0.E0));
#937=AXIS2_PLACEMENT_3D('',#934,#935,#936);
#938=CONICAL_SURFACE('',#937,1.304057838734E0,5.9E1);
#939=ORIENTED_EDGE('',*,*,#927,.F.);
#941=ORIENTED_EDGE('',*,*,#940,.F.);
#943=ORIENTED_EDGE('',*,*,#942,.T.);
#944=EDGE_LOOP('',(#939,#941,#943));
#945=FACE_OUTER_BOUND('',#944,.F.);
#946=ADVANCED_FACE('',(#945),#938,.T.);
#947=CARTESIAN_POINT('',(4.2E1,5.2E1,-6.718594547339E0));
#948=DIRECTION('',(0.E0,0.E0,1.E0));
#949=DIRECTION('',(0.E0,-1.E0,0.E0));
#950=AXIS2_PLACEMENT_3D('',#947,#948,#949);
#951=CONICAL_SURFACE('',#950,1.304057838734E0,5.9E1);
#952=ORIENTED_EDGE('',*,*,#929,.F.);
#953=ORIENTED_EDGE('',*,*,#942,.F.);
#954=ORIENTED_EDGE('',*,*,#940,.T.);
#955=EDGE_LOOP('',(#952,#953,#954));
#956=FACE_OUTER_BOUND('',#955,.F.);
#957=ADVANCED_FACE('',(#956),#951,.T.);
#959=CARTESIAN_POINT('',(3.E1,5.2E1,-6.E0));
#960=DIRECTION('',(0.E0,0.E0,-1.E0));
#961=DIRECTION('',(0.E0,1.E0,0.E0));
#962=AXIS2_PLACEMENT_3D('',#959,#960,#961);
#964=CARTESIAN_POINT('',(3.E1,5.2E1,-6.E0));
#965=DIRECTION('',(0.E0,0.E0,-1.E0));
#966=DIRECTION('',(0.E0,-1.E0,0.E0));
#967=AXIS2_PLACEMENT_3D('',#964,#965,#966);
#969=DIRECTION('',(0.E0,-8.571673007021E-1,5.150380749101E-1));
#970=VECTOR('',#969,2.916583493038E0);
#971=CARTESIAN_POINT('',(3.E1,5.2E1,-7.502151547569E0));
#972=LINE('',#971,#970);
#973=DIRECTION('',(0.E0,8.571673007021E-1,5.150380749101E-1));
#974=VECTOR('',#973,2.916583493038E0);
#975=CARTESIAN_POINT('',(3.E1,5.2E1,-7.502151547569E0));
#976=LINE('',#975,#974);
#977=CARTESIAN_POINT('',(3.E1,5.2E1,-7.502151547569E0));
#978=CARTESIAN_POINT('',(3.E1,4.95E1,-6.E0));
#979=VERTEX_POINT('',#977);
#980=VERTEX_POINT('',#978);
#981=CARTESIAN_POINT('',(3.E1,5.45E1,-6.E0));
#982=VERTEX_POINT('',#981);
#983=CARTESIAN_POINT('',(3.E1,5.2E1,-6.E0));
#984=DIRECTION('',(0.E0,0.E0,1.E0));
#985=DIRECTION('',(-1.E0,0.E0,0.E0));
#986=AXIS2_PLACEMENT_3D('',#983,#984,#985);
#987=PLANE('',#986);
#989=ORIENTED_EDGE('',*,*,#988,.T.);
#991=ORIENTED_EDGE('',*,*,#990,.T.);
#992=EDGE_LOOP('',(#989,#991));
#993=FACE_OUTER_BOUND('',#992,.F.);
#994=ADVANCED_FACE('',(#993),#987,.T.);
#995=CARTESIAN_POINT('',(3.E1,5.2E1,-6.718594547339E0));
#996=DIRECTION('',(0.E0,0.E0,1.E0));
#997=DIRECTION('',(0.E0,-1.E0,0.E0));
#998=AXIS2_PLACEMENT_3D('',#995,#996,#997);
#999=CONICAL_SURFACE('',#998,1.304057838734E0,5.9E1);
#1000=ORIENTED_EDGE('',*,*,#988,.F.);
#1002=ORIENTED_EDGE('',*,*,#1001,.F.);
#1004=ORIENTED_EDGE('',*,*,#1003,.T.);
#1005=EDGE_LOOP('',(#1000,#1002,#1004));
#1006=FACE_OUTER_BOUND('',#1005,.F.);
#1007=ADVANCED_FACE('',(#1006),#999,.T.);
#1008=CARTESIAN_POINT('',(3.E1,5.2E1,-6.718594547339E0));
#1009=DIRECTION('',(0.E0,0.E0,1.E0));
#1010=DIRECTION('',(0.E0,-1.E0,0.E0));
#1011=AXIS2_PLACEMENT_3D('',#1008,#1009,#1010);
#1012=CONICAL_SURFACE('',#1011,1.304057838734E0,5.9E1);
#1013=ORIENTED_EDGE('',*,*,#990,.F.);
#1014=ORIENTED_EDGE('',*,*,#1003,.F.);
#1015=ORIENTED_EDGE('',*,*,#1001,.T.);
#1016=EDGE_LOOP('',(#1013,#1014,#1015));
#1017=FACE_OUTER_BOUND('',#1016,.F.);
#1018=ADVANCED_FACE('',(#1017),#1012,.T.);
#1020=DIRECTION('',(0.E0,-8.571673007021E-1,5.150380749101E-1));
#1021=VECTOR('',#1020,2.916583493038E0);
#1022=CARTESIAN_POINT('',(3.E1,4.322330470336E0,-7.502151547569E0));
#1023=LINE('',#1022,#1021);
#1024=DIRECTION('',(0.E0,8.571673007021E-1,5.150380749101E-1));
#1025=VECTOR('',#1024,2.916583493038E0);
#1026=CARTESIAN_POINT('',(3.E1,4.322330470336E0,-7.502151547569E0));
#1027=LINE('',#1026,#1025);
#1028=CARTESIAN_POINT('',(3.E1,4.322330470336E0,-6.E0));
#1029=DIRECTION('',(0.E0,0.E0,-1.E0));
#1030=DIRECTION('',(0.E0,1.E0,0.E0));
#1031=AXIS2_PLACEMENT_3D('',#1028,#1029,#1030);
#1033=CARTESIAN_POINT('',(3.E1,4.322330470336E0,-6.E0));
#1034=DIRECTION('',(0.E0,0.E0,-1.E0));
#1035=DIRECTION('',(0.E0,-1.E0,0.E0));
#1036=AXIS2_PLACEMENT_3D('',#1033,#1034,#1035);
#1038=CARTESIAN_POINT('',(3.E1,4.322330470336E0,-7.502151547569E0));
#1039=CARTESIAN_POINT('',(3.E1,1.822330470336E0,-6.E0));
#1040=VERTEX_POINT('',#1038);
#1041=VERTEX_POINT('',#1039);
#1042=CARTESIAN_POINT('',(3.E1,6.822330470336E0,-6.E0));
#1043=VERTEX_POINT('',#1042);
#1044=CARTESIAN_POINT('',(3.E1,4.322330470336E0,-6.718594547339E0));
#1045=DIRECTION('',(0.E0,0.E0,1.E0));
#1046=DIRECTION('',(0.E0,-1.E0,0.E0));
#1047=AXIS2_PLACEMENT_3D('',#1044,#1045,#1046);
#1048=CONICAL_SURFACE('',#1047,1.304057838734E0,5.9E1);
#1050=ORIENTED_EDGE('',*,*,#1049,.F.);
#1052=ORIENTED_EDGE('',*,*,#1051,.F.);
#1054=ORIENTED_EDGE('',*,*,#1053,.T.);
#1055=EDGE_LOOP('',(#1050,#1052,#1054));
#1056=FACE_OUTER_BOUND('',#1055,.F.);
#1057=ADVANCED_FACE('',(#1056),#1048,.T.);
#1058=CARTESIAN_POINT('',(3.E1,4.322330470336E0,-6.E0));
#1059=DIRECTION('',(0.E0,0.E0,1.E0));
#1060=DIRECTION('',(-1.E0,0.E0,0.E0));
#1061=AXIS2_PLACEMENT_3D('',#1058,#1059,#1060);
#1062=PLANE('',#1061);
#1064=ORIENTED_EDGE('',*,*,#1063,.T.);
#1065=ORIENTED_EDGE('',*,*,#1049,.T.);
#1066=EDGE_LOOP('',(#1064,#1065));
#1067=FACE_OUTER_BOUND('',#1066,.F.);
#1068=ADVANCED_FACE('',(#1067),#1062,.T.);
#1069=CARTESIAN_POINT('',(3.E1,4.322330470336E0,-6.718594547339E0));
#1070=DIRECTION('',(0.E0,0.E0,1.E0));
#1071=DIRECTION('',(0.E0,-1.E0,0.E0));
#1072=AXIS2_PLACEMENT_3D('',#1069,#1070,#1071);
#1073=CONICAL_SURFACE('',#1072,1.304057838734E0,5.9E1);
#1074=ORIENTED_EDGE('',*,*,#1063,.F.);
#1075=ORIENTED_EDGE('',*,*,#1053,.F.);
#1076=ORIENTED_EDGE('',*,*,#1051,.T.);
#1077=EDGE_LOOP('',(#1074,#1075,#1076));
#1078=FACE_OUTER_BOUND('',#1077,.F.);
#1079=ADVANCED_FACE('',(#1078),#1073,.T.);
#1081=CARTESIAN_POINT('',(3.E1,2.2E1,-6.E0));
#1082=DIRECTION('',(0.E0,0.E0,-1.E0));
#1083=DIRECTION('',(0.E0,1.E0,0.E0));
#1084=AXIS2_PLACEMENT_3D('',#1081,#1082,#1083);
#1086=CARTESIAN_POINT('',(3.E1,2.2E1,-6.E0));
#1087=DIRECTION('',(0.E0,0.E0,-1.E0));
#1088=DIRECTION('',(0.E0,-1.E0,0.E0));
#1089=AXIS2_PLACEMENT_3D('',#1086,#1087,#1088);
#1091=DIRECTION('',(0.E0,-8.571673007021E-1,5.150380749101E-1));
#1092=VECTOR('',#1091,2.916583493038E0);
#1093=CARTESIAN_POINT('',(3.E1,2.2E1,-7.502151547569E0));
#1094=LINE('',#1093,#1092);
#1095=DIRECTION('',(0.E0,8.571673007021E-1,5.150380749101E-1));
#1096=VECTOR('',#1095,2.916583493038E0);
#1097=CARTESIAN_POINT('',(3.E1,2.2E1,-7.502151547569E0));
#1098=LINE('',#1097,#1096);
#1099=CARTESIAN_POINT('',(3.E1,2.2E1,-7.502151547569E0));
#1100=CARTESIAN_POINT('',(3.E1,1.95E1,-6.E0));
#1101=VERTEX_POINT('',#1099);
#1102=VERTEX_POINT('',#1100);
#1103=CARTESIAN_POINT('',(3.E1,2.45E1,-6.E0));
#1104=VERTEX_POINT('',#1103);
#1105=CARTESIAN_POINT('',(3.E1,2.2E1,-6.E0));
#1106=DIRECTION('',(0.E0,0.E0,1.E0));
#1107=DIRECTION('',(-1.E0,0.E0,0.E0));
#1108=AXIS2_PLACEMENT_3D('',#1105,#1106,#1107);
#1109=PLANE('',#1108);
#1111=ORIENTED_EDGE('',*,*,#1110,.T.);
#1113=ORIENTED_EDGE('',*,*,#1112,.T.);
#1114=EDGE_LOOP('',(#1111,#1113));
#1115=FACE_OUTER_BOUND('',#1114,.F.);
#1116=ADVANCED_FACE('',(#1115),#1109,.T.);
#1117=CARTESIAN_POINT('',(3.E1,2.2E1,-6.718594547339E0));
#1118=DIRECTION('',(0.E0,0.E0,1.E0));
#1119=DIRECTION('',(0.E0,-1.E0,0.E0));
#1120=AXIS2_PLACEMENT_3D('',#1117,#1118,#1119);
#1121=CONICAL_SURFACE('',#1120,1.304057838734E0,5.9E1);
#1122=ORIENTED_EDGE('',*,*,#1110,.F.);
#1124=ORIENTED_EDGE('',*,*,#1123,.F.);
#1126=ORIENTED_EDGE('',*,*,#1125,.T.);
#1127=EDGE_LOOP('',(#1122,#1124,#1126));
#1128=FACE_OUTER_BOUND('',#1127,.F.);
#1129=ADVANCED_FACE('',(#1128),#1121,.T.);
#1130=CARTESIAN_POINT('',(3.E1,2.2E1,-6.718594547339E0));
#1131=DIRECTION('',(0.E0,0.E0,1.E0));
#1132=DIRECTION('',(0.E0,-1.E0,0.E0));
#1133=AXIS2_PLACEMENT_3D('',#1130,#1131,#1132);
#1134=CONICAL_SURFACE('',#1133,1.304057838734E0,5.9E1);
#1135=ORIENTED_EDGE('',*,*,#1112,.F.);
#1136=ORIENTED_EDGE('',*,*,#1125,.F.);
#1137=ORIENTED_EDGE('',*,*,#1123,.T.);
#1138=EDGE_LOOP('',(#1135,#1136,#1137));
#1139=FACE_OUTER_BOUND('',#1138,.F.);
#1140=ADVANCED_FACE('',(#1139),#1134,.T.);
#1142=CARTESIAN_POINT('',(2.2E1,3.6E1,-6.E0));
#1143=DIRECTION('',(0.E0,0.E0,-1.E0));
#1144=DIRECTION('',(0.E0,1.E0,0.E0));
#1145=AXIS2_PLACEMENT_3D('',#1142,#1143,#1144);
#1147=CARTESIAN_POINT('',(2.2E1,3.6E1,-6.E0));
#1148=DIRECTION('',(0.E0,0.E0,-1.E0));
#1149=DIRECTION('',(0.E0,-1.E0,0.E0));
#1150=AXIS2_PLACEMENT_3D('',#1147,#1148,#1149);
#1152=DIRECTION('',(0.E0,-8.571673007021E-1,5.150380749101E-1));
#1153=VECTOR('',#1152,2.916583493038E0);
#1154=CARTESIAN_POINT('',(2.2E1,3.6E1,-7.502151547569E0));
#1155=LINE('',#1154,#1153);
#1156=DIRECTION('',(0.E0,8.571673007021E-1,5.150380749101E-1));
#1157=VECTOR('',#1156,2.916583493038E0);
#1158=CARTESIAN_POINT('',(2.2E1,3.6E1,-7.502151547569E0));
#1159=LINE('',#1158,#1157);
#1160=CARTESIAN_POINT('',(2.2E1,3.6E1,-7.502151547569E0));
#1161=CARTESIAN_POINT('',(2.2E1,3.35E1,-6.E0));
#1162=VERTEX_POINT('',#1160);
#1163=VERTEX_POINT('',#1161);
#1164=CARTESIAN_POINT('',(2.2E1,3.85E1,-6.E0));
#1165=VERTEX_POINT('',#1164);
#1166=CARTESIAN_POINT('',(2.2E1,3.6E1,-6.E0));
#1167=DIRECTION('',(0.E0,0.E0,1.E0));
#1168=DIRECTION('',(-1.E0,0.E0,0.E0));
#1169=AXIS2_PLACEMENT_3D('',#1166,#1167,#1168);
#1170=PLANE('',#1169);
#1172=ORIENTED_EDGE('',*,*,#1171,.T.);
#1174=ORIENTED_EDGE('',*,*,#1173,.T.);
#1175=EDGE_LOOP('',(#1172,#1174));
#1176=FACE_OUTER_BOUND('',#1175,.F.);
#1177=ADVANCED_FACE('',(#1176),#1170,.T.);
#1178=CARTESIAN_POINT('',(2.2E1,3.6E1,-6.718594547339E0));
#1179=DIRECTION('',(0.E0,0.E0,1.E0));
#1180=DIRECTION('',(0.E0,-1.E0,0.E0));
#1181=AXIS2_PLACEMENT_3D('',#1178,#1179,#1180);
#1182=CONICAL_SURFACE('',#1181,1.304057838734E0,5.9E1);
#1183=ORIENTED_EDGE('',*,*,#1171,.F.);
#1185=ORIENTED_EDGE('',*,*,#1184,.F.);
#1187=ORIENTED_EDGE('',*,*,#1186,.T.);
#1188=EDGE_LOOP('',(#1183,#1185,#1187));
#1189=FACE_OUTER_BOUND('',#1188,.F.);
#1190=ADVANCED_FACE('',(#1189),#1182,.T.);
#1191=CARTESIAN_POINT('',(2.2E1,3.6E1,-6.718594547339E0));
#1192=DIRECTION('',(0.E0,0.E0,1.E0));
#1193=DIRECTION('',(0.E0,-1.E0,0.E0));
#1194=AXIS2_PLACEMENT_3D('',#1191,#1192,#1193);
#1195=CONICAL_SURFACE('',#1194,1.304057838734E0,5.9E1);
#1196=ORIENTED_EDGE('',*,*,#1173,.F.);
#1197=ORIENTED_EDGE('',*,*,#1186,.F.);
#1198=ORIENTED_EDGE('',*,*,#1184,.T.);
#1199=EDGE_LOOP('',(#1196,#1197,#1198));
#1200=FACE_OUTER_BOUND('',#1199,.F.);
#1201=ADVANCED_FACE('',(#1200),#1195,.T.);
#1203=ORIENTED_CLOSED_SHELL('',*,#958,.F.);
#1204=ORIENTED_CLOSED_SHELL('',*,#1019,.F.);
#1205=ORIENTED_CLOSED_SHELL('',*,#1080,.F.);
#1206=ORIENTED_CLOSED_SHELL('',*,#1141,.F.);
#1207=ORIENTED_CLOSED_SHELL('',*,#1202,.F.);
#1210=DIMENSIONAL_EXPONENTS(0.E0,0.E0,0.E0,0.E0,0.E0,0.E0,0.E0);
#1212=PLANE_ANGLE_MEASURE_WITH_UNIT(PLANE_ANGLE_MEASURE(1.745329251994E-2),
#1211);
#1213=(CONVERSION_BASED_UNIT('DEGREE',#1212)NAMED_UNIT(*)PLANE_ANGLE_UNIT());
#1215=UNCERTAINTY_MEASURE_WITH_UNIT(LENGTH_MEASURE(1.051052623691E-2),#1209,
'closure',
'Maximum model space distance between geometric entities at asserted connectivities');
#1216=(GEOMETRIC_REPRESENTATION_CONTEXT(3)GLOBAL_UNCERTAINTY_ASSIGNED_CONTEXT((
#1215))GLOBAL_UNIT_ASSIGNED_CONTEXT((#1209,#1213,#1214))REPRESENTATION_CONTEXT(
'ID1','3'));
#1218=APPLICATION_CONTEXT(
'CONFIGURATION CONTROLLED 3D DESIGNS OF MECHANICAL PARTS AND ASSEMBLIES');
#1219=APPLICATION_PROTOCOL_DEFINITION('international standard',
'config_control_design',1994,#1218);
#1220=DESIGN_CONTEXT('',#1218,'design');
#1221=MECHANICAL_CONTEXT('',#1218,'mechanical');
#1222=PRODUCT('INFEED_FIXTURE','INFEED_FIXTURE','NOT SPECIFIED',(#1221));
#1223=PRODUCT_DEFINITION_FORMATION_WITH_SPECIFIED_SOURCE('1','LAST_VERSION',
#1222,.MADE.);
#1227=PRODUCT_CATEGORY('part','');
#1228=PRODUCT_RELATED_PRODUCT_CATEGORY('detail','',(#1222));
#1229=PRODUCT_CATEGORY_RELATIONSHIP('','',#1227,#1228);
#1230=SECURITY_CLASSIFICATION_LEVEL('unclassified');
#1231=SECURITY_CLASSIFICATION('','',#1230);
#1232=CC_DESIGN_SECURITY_CLASSIFICATION(#1231,(#1223));
#1233=APPROVAL_STATUS('approved');
#1234=APPROVAL(#1233,'');
#1235=CC_DESIGN_APPROVAL(#1234,(#1231,#1223,#1224));
#1236=CALENDAR_DATE(125,7,11);
#1237=COORDINATED_UNIVERSAL_TIME_OFFSET(8,0,.AHEAD.);
#1238=LOCAL_TIME(20,20,2.2E1,#1237);
#1239=DATE_AND_TIME(#1236,#1238);
#1240=APPROVAL_DATE_TIME(#1239,#1234);
#1241=DATE_TIME_ROLE('creation_date');
#1242=CC_DESIGN_DATE_AND_TIME_ASSIGNMENT(#1239,#1241,(#1224));
#1243=DATE_TIME_ROLE('classification_date');
#1244=CC_DESIGN_DATE_AND_TIME_ASSIGNMENT(#1239,#1243,(#1231));
#1245=PERSON('UNSPECIFIED','UNSPECIFIED',$,$,$,$);
#1246=ORGANIZATION('UNSPECIFIED','UNSPECIFIED','UNSPECIFIED');
#1247=PERSON_AND_ORGANIZATION(#1245,#1246);
#1248=APPROVAL_ROLE('approver');
#1249=APPROVAL_PERSON_ORGANIZATION(#1247,#1234,#1248);
#1250=PERSON_AND_ORGANIZATION_ROLE('creator');
#1251=CC_DESIGN_PERSON_AND_ORGANIZATION_ASSIGNMENT(#1247,#1250,(#1223,#1224));
#1252=PERSON_AND_ORGANIZATION_ROLE('design_supplier');
#1253=CC_DESIGN_PERSON_AND_ORGANIZATION_ASSIGNMENT(#1247,#1252,(#1223));
#1254=PERSON_AND_ORGANIZATION_ROLE('classification_officer');
#1255=CC_DESIGN_PERSON_AND_ORGANIZATION_ASSIGNMENT(#1247,#1254,(#1231));
#1256=PERSON_AND_ORGANIZATION_ROLE('design_owner');
#1257=CC_DESIGN_PERSON_AND_ORGANIZATION_ASSIGNMENT(#1247,#1256,(#1222));
#5=CIRCLE('',#4,2.5175E0);
#26=CIRCLE('',#25,2.5175E0);
#35=CIRCLE('',#34,2.5175E0);
#44=CIRCLE('',#43,2.5175E0);
#53=CIRCLE('',#52,3.5E0);
#58=CIRCLE('',#57,3.5E0);
#63=CIRCLE('',#62,3.5E0);
#68=CIRCLE('',#67,3.5E0);
#89=CIRCLE('',#88,2.5E0);
#94=CIRCLE('',#93,2.5E0);
#99=CIRCLE('',#98,2.5E0);
#104=CIRCLE('',#103,2.5E0);
#109=CIRCLE('',#108,2.5E0);
#114=CIRCLE('',#113,2.5E0);
#119=CIRCLE('',#118,2.5E0);
#124=CIRCLE('',#123,2.5E0);
#129=CIRCLE('',#128,2.5E0);
#134=CIRCLE('',#133,2.5E0);
#139=CIRCLE('',#138,3.5E0);
#144=CIRCLE('',#143,3.5E0);
#149=CIRCLE('',#148,3.5E0);
#154=CIRCLE('',#153,3.5E0);
#195=CIRCLE('',#194,2.5E0);
#200=CIRCLE('',#199,2.5E0);
#213=CIRCLE('',#212,2.5E0);
#218=CIRCLE('',#217,2.5E0);
#231=CIRCLE('',#230,2.5E0);
#236=CIRCLE('',#235,2.5E0);
#249=CIRCLE('',#248,2.5E0);
#254=CIRCLE('',#253,2.5E0);
#267=CIRCLE('',#266,2.5E0);
#272=CIRCLE('',#271,2.5E0);
#277=CIRCLE('',#276,2.5175E0);
#286=CIRCLE('',#285,2.5175E0);
#303=CIRCLE('',#302,2.5175E0);
#316=CIRCLE('',#315,2.5175E0);
#410=EDGE_CURVE('',#339,#344,#5,.T.);
#412=EDGE_CURVE('',#342,#344,#9,.T.);
#414=EDGE_CURVE('',#342,#340,#68,.T.);
#416=EDGE_CURVE('',#339,#340,#13,.T.);
#426=EDGE_CURVE('',#348,#346,#26,.T.);
#428=EDGE_CURVE('',#344,#348,#17,.T.);
#431=EDGE_CURVE('',#346,#339,#21,.T.);
#441=EDGE_CURVE('',#346,#362,#30,.T.);
#443=EDGE_CURVE('',#362,#364,#139,.T.);
#445=EDGE_CURVE('',#364,#348,#39,.T.);
#457=EDGE_CURVE('',#346,#348,#35,.T.);
#460=EDGE_CURVE('',#364,#362,#144,.T.);
#472=EDGE_CURVE('',#344,#339,#44,.T.);
#485=EDGE_CURVE('',#340,#342,#63,.T.);
#496=EDGE_CURVE('',#391,#399,#72,.T.);
#498=EDGE_CURVE('',#391,#395,#48,.T.);
#500=EDGE_CURVE('',#403,#395,#162,.T.);
#502=EDGE_CURVE('',#399,#403,#178,.T.);
#506=EDGE_CURVE('',#352,#354,#53,.T.);
#508=EDGE_CURVE('',#354,#352,#58,.T.);
#522=EDGE_CURVE('',#392,#400,#84,.T.);
#524=EDGE_CURVE('',#391,#392,#158,.T.);
#527=EDGE_CURVE('',#399,#400,#76,.T.);
#537=EDGE_CURVE('',#396,#392,#80,.T.);
#540=EDGE_CURVE('',#404,#400,#174,.T.);
#542=EDGE_CURVE('',#396,#404,#170,.T.);
#546=EDGE_CURVE('',#370,#372,#89,.T.);
#548=EDGE_CURVE('',#372,#370,#94,.T.);
#552=EDGE_CURVE('',#374,#376,#99,.T.);
#554=EDGE_CURVE('',#376,#374,#104,.T.);
#558=EDGE_CURVE('',#378,#380,#109,.T.);
#560=EDGE_CURVE('',#380,#378,#114,.T.);
#564=EDGE_CURVE('',#382,#384,#119,.T.);
#566=EDGE_CURVE('',#384,#382,#124,.T.);
#570=EDGE_CURVE('',#386,#388,#129,.T.);
#572=EDGE_CURVE('',#388,#386,#134,.T.);
#580=EDGE_CURVE('',#366,#368,#149,.T.);
#582=EDGE_CURVE('',#368,#366,#154,.T.);
#595=EDGE_CURVE('',#395,#396,#166,.T.);
#608=EDGE_CURVE('',#403,#404,#182,.T.);
#631=EDGE_CURVE('',#370,#319,#190,.T.);
#633=EDGE_CURVE('',#319,#320,#195,.T.);
#635=EDGE_CURVE('',#372,#320,#186,.T.);
#647=EDGE_CURVE('',#320,#319,#200,.T.);
#669=EDGE_CURVE('',#374,#323,#208,.T.);
#671=EDGE_CURVE('',#323,#324,#213,.T.);
#673=EDGE_CURVE('',#376,#324,#204,.T.);
#685=EDGE_CURVE('',#324,#323,#218,.T.);
#707=EDGE_CURVE('',#378,#327,#226,.T.);
#709=EDGE_CURVE('',#327,#328,#231,.T.);
#711=EDGE_CURVE('',#380,#328,#222,.T.);
#723=EDGE_CURVE('',#328,#327,#236,.T.);
#745=EDGE_CURVE('',#382,#331,#244,.T.);
#747=EDGE_CURVE('',#331,#332,#249,.T.);
#749=EDGE_CURVE('',#384,#332,#240,.T.);
#761=EDGE_CURVE('',#332,#331,#254,.T.);
#783=EDGE_CURVE('',#386,#335,#262,.T.);
#785=EDGE_CURVE('',#335,#336,#267,.T.);
#787=EDGE_CURVE('',#388,#336,#258,.T.);
#799=EDGE_CURVE('',#336,#335,#272,.T.);
#820=EDGE_CURVE('',#358,#366,#281,.T.);
#823=EDGE_CURVE('',#368,#360,#290,.T.);
#825=EDGE_CURVE('',#360,#358,#277,.T.);
#836=EDGE_CURVE('',#358,#360,#286,.T.);
#849=EDGE_CURVE('',#358,#351,#298,.T.);
#851=EDGE_CURVE('',#356,#351,#316,.T.);
#853=EDGE_CURVE('',#356,#360,#294,.T.);
#865=EDGE_CURVE('',#351,#356,#303,.T.);
#877=EDGE_CURVE('',#354,#356,#307,.T.);
#880=EDGE_CURVE('',#351,#352,#311,.T.);
#897=CLOSED_SHELL('',(#420,#435,#450,#464,#477,#490,#516,#531,#586,#599,#612,
#624,#639,#652,#662,#677,#690,#700,#715,#728,#738,#753,#766,#776,#791,#804,#814,
#829,#842,#857,#870,#884,#896));
#902=CIRCLE('',#901,2.5E0);
#907=CIRCLE('',#906,2.5E0);
#927=EDGE_CURVE('',#921,#919,#902,.T.);
#929=EDGE_CURVE('',#919,#921,#907,.T.);
#940=EDGE_CURVE('',#918,#921,#915,.T.);
#942=EDGE_CURVE('',#918,#919,#911,.T.);
#958=CLOSED_SHELL('',(#933,#946,#957));
#963=CIRCLE('',#962,2.5E0);
#968=CIRCLE('',#967,2.5E0);
#988=EDGE_CURVE('',#982,#980,#963,.T.);
#990=EDGE_CURVE('',#980,#982,#968,.T.);
#1001=EDGE_CURVE('',#979,#982,#976,.T.);
#1003=EDGE_CURVE('',#979,#980,#972,.T.);
#1019=CLOSED_SHELL('',(#994,#1007,#1018));
#1032=CIRCLE('',#1031,2.5E0);
#1037=CIRCLE('',#1036,2.5E0);
#1049=EDGE_CURVE('',#1041,#1043,#1037,.T.);
#1051=EDGE_CURVE('',#1040,#1041,#1023,.T.);
#1053=EDGE_CURVE('',#1040,#1043,#1027,.T.);
#1063=EDGE_CURVE('',#1043,#1041,#1032,.T.);
#1080=CLOSED_SHELL('',(#1057,#1068,#1079));
#1085=CIRCLE('',#1084,2.5E0);
#1090=CIRCLE('',#1089,2.5E0);
#1110=EDGE_CURVE('',#1104,#1102,#1085,.T.);
#1112=EDGE_CURVE('',#1102,#1104,#1090,.T.);
#1123=EDGE_CURVE('',#1101,#1104,#1098,.T.);
#1125=EDGE_CURVE('',#1101,#1102,#1094,.T.);
#1141=CLOSED_SHELL('',(#1116,#1129,#1140));
#1146=CIRCLE('',#1145,2.5E0);
#1151=CIRCLE('',#1150,2.5E0);
#1171=EDGE_CURVE('',#1165,#1163,#1146,.T.);
#1173=EDGE_CURVE('',#1163,#1165,#1151,.T.);
#1184=EDGE_CURVE('',#1162,#1165,#1159,.T.);
#1186=EDGE_CURVE('',#1162,#1163,#1155,.T.);
#1202=CLOSED_SHELL('',(#1177,#1190,#1201));
#1208=BREP_WITH_VOIDS('',#897,(#1203,#1204,#1205,#1206,#1207));
#1209=(LENGTH_UNIT()NAMED_UNIT(*)SI_UNIT(.MILLI.,.METRE.));
#1211=(NAMED_UNIT(*)PLANE_ANGLE_UNIT()SI_UNIT($,.RADIAN.));
#1214=(NAMED_UNIT(*)SI_UNIT($,.STERADIAN.)SOLID_ANGLE_UNIT());
#1217=ADVANCED_BREP_SHAPE_REPRESENTATION('',(#1208),#1216);
#1224=PRODUCT_DEFINITION('design','',#1223,#1220);
#1225=PRODUCT_DEFINITION_SHAPE('','SHAPE FOR INFEED_FIXTURE.',#1224);
#1226=SHAPE_DEFINITION_REPRESENTATION(#1225,#1217);
ENDSEC;
END-ISO-10303-21;
